<svg width="236" height="150" viewBox="0 0 236 150" fill="none" xmlns="http://www.w3.org/2000/svg">
<style>
  .bg { fill: #F2EFE9; }
  .ink { fill: #222222; }
  @media (prefers-color-scheme: dark) {
    .bg { fill: #1C1A17; }
    .ink { fill: #F2EFE9; }
  }
</style>
<rect class="bg" width="236" height="150" rx="8"/>
<path d="M123.856 80.9308C123.765 85.0573 121.789 87.573 118.253 88.4237C115.333 89.1295 112.703 88.5865 110.419 86.5595C109.675 85.9079 108.932 85.2564 108.188 84.6048C107.39 83.9171 106.991 83.0483 107.027 81.9805C107.082 80.3516 107.862 79.4286 109.512 79.3924C110.582 79.3743 111.67 79.5553 112.703 79.8448C113.755 80.1344 114.662 79.9896 115.551 79.4648C116.24 79.0485 116.893 78.5417 117.618 78.1979C118.416 77.7997 119.25 77.4196 120.102 77.2205C121.843 76.8042 123.113 77.5825 123.602 79.3019C123.802 79.9715 123.82 80.6955 123.856 80.9308ZM115.478 85.8536C116.566 85.9079 117.437 85.4736 118.271 85.1478C120.247 84.3695 121.154 82.7949 121.299 80.7498C121.372 79.8629 121.009 79.1571 120.429 78.9399C119.74 78.6684 119.214 78.958 118.706 79.4105C118.107 79.9534 117.527 80.5145 116.874 81.0213C115.569 82.0348 114.172 82.3606 112.595 81.6004C111.978 81.2927 111.235 81.1841 110.546 81.0575C110.346 81.0213 109.929 81.2384 109.875 81.4013C109.802 81.709 109.82 82.1796 110.02 82.3606C110.999 83.2836 111.996 84.2247 113.102 84.9668C113.828 85.4374 114.698 85.8174 115.478 85.8536Z" class="ink"/>
<path d="M129.677 52.7872C131.654 52.4433 132.814 53.1854 133.63 54.2713C133.884 54.5971 134.011 55.0676 134.066 55.502C134.156 56.1355 133.395 56.8956 132.869 56.606C131.092 55.6468 129.369 55.6287 127.483 56.3707C126.721 56.6784 125.996 55.4839 126.449 54.7057C126.703 54.2532 127.066 53.7464 127.501 53.5292C128.39 53.1311 129.333 52.8596 129.677 52.7872Z" class="ink"/>
<path d="M100.372 58.8322C99.1391 58.6874 98.1961 59.1218 97.1806 59.5018C96.9086 59.6104 96.3646 59.538 96.2195 59.357C95.9837 59.0313 95.8205 58.5064 95.8931 58.1444C96.1107 57.2033 96.7998 56.5698 97.7065 56.2803C99.1754 55.8097 100.59 56.1174 101.859 56.9137C102.149 57.0947 102.331 57.6739 102.349 58.072C102.367 58.5969 101.859 58.7779 101.388 58.8322C101.025 58.8684 100.662 58.8684 100.372 58.8322Z" class="ink"/>
<path d="M107.154 68.9132C107.717 68.9494 108.061 68.9494 108.406 68.9856C108.877 69.0218 109.349 69.1847 109.331 69.7095C109.331 70.0172 109.095 70.4154 108.841 70.5964C107.771 71.3746 105.812 71.3565 104.797 70.6145C104.18 70.162 103.89 69.5105 103.999 68.7503C104.126 67.7911 104.561 67.0128 105.54 66.7775C105.867 66.7051 106.447 66.9585 106.647 67.2481C106.919 67.6463 106.955 68.2073 107.154 68.9132Z" class="ink"/>
<path d="M134.845 47.3757C133.54 47.1766 132.252 46.7965 131.11 46.0002C130.638 45.6744 130.384 45.2038 130.566 44.6066C130.711 44.136 131.345 43.7559 131.89 43.955C133.25 44.4256 134.592 44.9504 135.879 45.5658C136.133 45.6925 136.26 46.344 136.205 46.7241C136.169 46.9594 135.716 47.1585 135.426 47.3214C135.281 47.3938 135.063 47.3576 134.845 47.3757Z" class="ink"/>
<path d="M95.4397 51.1402C94.8776 51.1764 94.6781 51.0859 94.533 50.9954C94.3154 50.8687 94.0071 50.6877 93.989 50.5068C93.9708 50.1991 94.0615 49.8009 94.261 49.5656C94.4786 49.3122 94.8413 49.1132 95.1677 49.0408C95.9475 48.8417 96.7272 48.6969 97.5251 48.5883C98.2687 48.4978 98.722 48.7874 98.7764 49.276C98.8308 49.9276 98.4319 50.3077 97.9241 50.4887C96.9811 50.7963 96.0381 51.104 95.4397 51.1402Z" class="ink"/>
<path d="M125.933 66.4287C125.914 66.9717 125.407 67.3517 124.826 67.2613C124.337 67.1708 124.065 66.845 124.083 66.3563C124.101 65.8495 124.373 65.56 124.899 65.5238C125.479 65.4695 125.951 65.9038 125.933 66.4287Z" fill="#D97757"/>
<path d="M93.3635 68.8358C93.9257 69.596 93.0008 70.4104 92.3842 70.2837C92.1122 70.2295 91.7496 69.8675 91.7133 69.6141C91.6407 69.0168 92.0578 68.6006 92.62 68.5101C92.892 68.492 93.2547 68.6911 93.3635 68.8358Z" fill="#D97757"/>
<path d="M97.9696 69.8494C98.0784 70.5009 97.2442 70.6819 96.8997 70.8448C96.7546 70.8991 96.2468 70.5371 96.1924 70.3018C96.0655 69.8132 96.3738 69.415 96.8815 69.3788C97.1536 69.3426 97.8608 69.2883 97.9696 69.8494Z" fill="#D97757"/>
<path d="M129.596 65.5781C129.052 65.4695 129.088 64.7093 129.16 64.5102C129.251 64.2569 129.686 63.9673 129.94 64.0035C130.158 64.0397 130.466 64.5102 130.448 64.7455C130.43 64.9989 130.158 65.7048 129.596 65.5781Z" fill="#D97757"/>
<path d="M131.572 67.4603C132.044 67.4965 132.026 68.0757 132.026 68.2929C132.026 68.7092 131.736 68.9806 131.318 68.872C131.119 68.8177 130.829 68.4558 130.883 68.3291C130.992 68.0395 131.101 67.4241 131.572 67.4603Z" fill="#D97757"/>
<path d="M97.0266 64.6007C97.6432 64.6188 97.625 65.3971 97.625 65.6686C97.625 66.0848 97.2442 66.302 96.8634 66.1753C96.6639 66.121 96.3738 65.7953 96.41 65.6324C96.4282 65.3609 96.4282 64.5826 97.0266 64.6007Z" fill="#D97757"/>
<path d="M114.736 113.309C117.619 114.269 121.355 113.671 123.966 111.862C124.093 110.884 123.531 110.015 123.204 109.111C122.805 107.988 122.497 106.866 122.606 105.672C122.642 105.219 122.678 104.767 122.805 104.332C123.059 103.355 123.73 102.722 124.419 102.722C125.108 102.722 125.634 103.373 125.652 104.532C125.689 108.332 127.647 111.192 130.113 113.816C131.22 115.011 132.398 116.151 133.486 117.345C136.279 120.404 138.31 123.879 139.217 127.951C139.253 128.132 139.271 128.313 139.344 128.476C140.631 131.101 140.396 133.924 140.432 136.711C140.468 139.173 139.489 140.313 136.986 140.675C135.191 140.928 133.378 141.019 131.582 141.236C129.062 141.525 126.541 141.761 124.057 142.177C119.741 142.919 115.407 142.865 111.054 142.684C108.334 142.575 105.65 142.467 102.93 142.738C98.7412 143.154 98.977 142.304 98.2697 139.173C98.1428 138.648 98.1428 138.087 98.1791 137.562C98.4874 132.82 99.4666 128.277 102.078 124.187C103.746 121.581 105.687 119.21 107.772 116.947C109.187 115.427 110.583 113.889 111.544 112.006C112.306 110.522 112.705 108.984 112.705 107.319C112.705 106.504 112.741 105.69 112.832 104.894C112.904 104.278 113.357 103.952 113.956 103.916C114.572 103.898 114.971 104.296 115.153 104.839C115.298 105.256 115.352 105.726 115.37 106.16C115.479 108.242 115.552 110.323 114.79 112.314C114.717 112.585 114.772 112.875 114.736 113.309ZM111.073 139.824C111.073 139.86 111.073 139.897 111.091 139.933C114.881 139.697 118.671 139.589 122.461 139.227C126.233 138.847 129.986 138.213 133.74 137.67C134.357 137.58 134.992 137.471 135.59 137.272C135.916 137.164 136.243 136.928 136.442 136.657C137.186 135.589 136.46 133.87 135.209 133.725C134.593 133.652 133.94 133.634 133.323 133.689C130.621 133.924 127.919 134.123 125.235 134.467C121.917 134.883 118.616 135.426 115.298 135.879C111.363 136.403 107.409 136.874 103.456 137.381C103.003 137.435 102.568 137.507 102.132 137.634C101.625 137.779 101.443 138.177 101.443 138.666C101.443 139.173 101.661 139.589 102.169 139.661C102.876 139.788 103.601 139.824 104.327 139.842C106.539 139.824 108.806 139.824 111.073 139.824ZM133.196 123.427C131.347 123.354 129.914 123.264 128.481 123.246C124.129 123.155 119.831 123.752 115.515 124.114C112.614 124.35 109.803 124.947 106.992 125.599C106.285 125.761 105.596 125.979 104.925 126.232C104.145 126.54 103.656 127.481 103.982 127.933C104.363 128.44 104.925 128.368 105.469 128.277C105.65 128.241 105.814 128.187 105.995 128.15C110.039 127.209 114.047 126.105 118.254 126.087C118.707 126.087 119.142 125.96 119.596 125.906C123.259 125.454 126.94 125.001 130.603 124.531C131.365 124.44 132.235 124.567 133.196 123.427Z" class="ink"/>
<path d="M142.679 103.21C141.9 101.527 142.824 99.6268 141.99 97.9799C140.866 98.8305 140.739 100.296 140.485 101.582C140.159 103.156 140.304 104.007 138.454 104.206C136.949 104.369 135.389 104.17 133.884 104.296C132.959 104.369 132.071 104.568 131.146 104.658C130.257 104.749 122.913 103.971 121.934 103.753C120.9 103.518 118.289 105.111 117.437 105.563C115.061 106.848 108.007 108.296 105.776 108.731C104.072 109.056 101.46 110.197 99.7738 110.052C98.849 109.979 98.6313 109.147 97.8878 108.912C96.8905 108.586 98.2868 108.459 96.8361 109.074C96.4552 109.237 95.9293 109.744 95.5848 109.943C93.717 111.101 91.5227 111.844 89.5098 112.676C88.0954 113.255 85.1758 114.956 84.0333 113.147C83.1266 111.699 84.2509 108.604 84.6317 107.138C85.9555 102.233 86.5721 97.2016 86.3907 92.134C86.3001 89.9621 86.4451 87.6998 86.2094 85.5641C85.9555 83.1932 85.0307 80.967 84.5048 78.6504C83.3805 73.818 82.8908 68.7323 82.6732 63.7913C82.4556 58.5608 82.8908 53.3845 83.3079 48.1902C83.6706 43.9008 82.8908 39.6114 83.5074 35.3401C84.6861 27.1051 90.7611 20.7887 98.0692 17.2232C106.52 13.0967 114.771 9.47695 124.454 10.6715C144.438 13.1329 155.21 32.77 158.275 50.7964C159.236 56.4432 159.381 62.1624 160.125 67.8273C160.886 73.637 161.104 79.2838 160.705 85.1659C160.523 87.917 160.215 90.6861 159.744 93.4009C159.417 95.3012 159.036 98.8486 157.767 100.369C156.57 101.799 152.653 101.907 150.876 102.287C148.138 102.867 145.472 103.21 142.679 103.21ZM106.157 36.607C103.927 36.9328 106.338 42.0909 102.403 42.1271C100.644 42.1452 98.9396 41.747 97.1443 41.8556C94.9138 42.0004 92.7196 42.471 90.5435 42.9958C89.0383 43.3578 87.37 43.575 86.554 45.041C85.8286 46.326 85.9193 48.2445 85.8104 49.6924C85.5203 53.9818 85.0307 58.2531 85.212 62.5425C85.5384 70.3069 86.4633 79.4286 90.7611 86.1071C94.7506 92.3149 100.608 98.2694 107.336 101.419C110.691 102.993 115.025 103.482 118.615 102.45C120.284 101.962 127.701 99.3011 128.39 98.7762C134.646 94.0524 139.597 88.1522 142.77 80.8765C144.366 77.2025 144.946 73.3294 145.581 69.42C145.962 67.0672 146.306 67.7911 148.102 68.0807C149.589 68.3341 150.513 67.1939 151.221 65.9451C152.236 64.1171 153.252 57.9997 149.752 58.2893C148.918 58.3617 147.938 59.5743 147.304 59.1942C146.85 58.9227 146.814 58.1988 146.633 57.7644C145.998 56.3346 145.019 55.0677 144.293 53.6741C143.205 51.6289 141.881 49.801 140.485 47.973C139.234 46.326 138.146 44.2447 136.423 43.032C133.086 40.6792 127.32 39.8105 123.366 40.2991C121.589 40.5163 119.522 41.3851 117.944 40.1905C116.911 39.4123 117.001 38.1454 115.732 38.9779C115.043 39.4304 114.735 40.3896 114.118 40.9326C112.939 41.9642 110.056 42.1271 108.641 41.4032C107.118 40.6249 106.81 38.0368 106.157 36.607ZM144.656 101.22C144.547 101.364 144.583 101.473 144.765 101.527C144.982 101.256 144.946 101.147 144.656 101.22Z" class="ink"/>
<path d="M149.063 62.4339C149.407 60.6964 150.84 60.7507 150.858 62.633C150.858 64.8953 149.443 64.0266 149.063 62.4339Z" class="ink"/>
</svg>
