<svg width="24" height="22" viewBox="0 0 24 22" fill="none" xmlns="http://www.w3.org/2000/svg">
<g clip-path="url(#clip0_2805_5588)">
<path d="M13.0484 3.56034C12.0122 1.72604 11.3406 0.934387 10.4004 0.432364C9.05712 -0.262743 6.48584 -0.0310402 5.41126 0.89577C4.72046 1.47502 4.60533 1.66811 2.26428 5.78082L2.18896 5.91297C0.018758 9.72033 0 9.75326 0 10.9941C0 12.172 0.0767554 12.3843 1.15133 14.3345C1.78456 15.4737 2.36023 16.3812 2.43699 16.3619C2.53293 16.3233 3.9529 13.9097 5.62234 10.9941L8.65419 5.68428L11.3981 5.62636C12.8949 5.60704 14.1038 5.5105 14.0654 5.43327C14.027 5.33672 13.5857 4.50646 13.0484 3.56034Z" fill="#FAAB1D"/>
<path d="M20.3974 4.04308C18.9774 1.61021 18.6512 1.16612 17.8453 0.664095C16.9626 0.104148 16.8091 0.0848396 14.3529 0.026914C12.9521 -0.011703 11.8008 -0.0117037 11.8008 0.0462214C11.8008 0.104147 13.144 2.4984 14.7751 5.35606C16.4061 8.2137 17.7494 10.7431 17.7494 10.9942C17.7494 11.2452 17.2312 12.3457 16.598 13.4463C15.9648 14.5662 15.4467 15.551 15.4467 15.6668C15.4467 15.7827 16.3486 15.8406 17.9028 15.7827C20.5125 15.7055 21.3568 15.4545 22.2971 14.431C23.0647 13.6008 23.6979 12.0755 23.6979 11.0135C23.6979 9.91286 23.2181 8.90883 20.3974 4.04308Z" fill="#FAAB1D"/>
<path d="M11.4933 10.9942C11.4933 10.5115 11.167 9.73913 10.3611 8.34887C9.72788 7.24832 9.15216 6.36011 9.09463 6.36011C9.03703 6.36011 7.78978 8.44546 6.33143 10.9942C3.68337 15.6282 3.2804 16.6515 3.49148 17.8487C3.7985 19.4706 5.33361 21.4594 6.58089 21.7876C6.98386 21.9035 9.28649 22 11.8962 22C16.3672 22 16.5207 21.9807 17.4994 21.5173C18.5739 21.0345 18.9577 20.5325 20.512 17.6942L21.2412 16.4005H15.0815C11.6851 16.4005 8.92189 16.3426 8.92189 16.2847C8.92189 16.2075 9.49762 15.1455 10.2076 13.9097C11.1287 12.3265 11.4933 11.4769 11.4933 10.9942Z" fill="#FAAB1D"/>
</g>
<defs>
<clipPath id="clip0_2805_5588">
<rect width="24" height="22" fill="white"/>
</clipPath>
</defs>
</svg>
