<svg width="236" height="150" viewBox="0 0 236 150" fill="none" xmlns="http://www.w3.org/2000/svg">
<style>
  .bg { fill: #F2EFE9; }
  .ink-stroked { fill: #222222; stroke: #222222; }
  .bg-stroke { fill: #F2EFE9; stroke: #222222; }
  @media (prefers-color-scheme: dark) {
    .bg { fill: #1C1A17; }
    .ink-stroked { fill: #F2EFE9; stroke: #F2EFE9; }
    .bg-stroke { fill: #1C1A17; stroke: #F2EFE9; }
  }
</style>
<rect class="bg" width="236" height="150" rx="8"/>
<path d="M135.864 11.4907C136.917 11.6604 137.923 11.8921 138.699 12.3003C139.484 12.7133 140.07 13.3288 140.197 14.2583L140.262 14.6587C140.395 15.5964 140.407 16.5497 140.41 17.478C140.414 18.4156 140.408 19.3252 140.498 20.2085L140.543 20.5854L140.647 21.4175C141.136 25.5712 141.075 29.6565 140.844 33.7222C140.595 38.0814 140.157 42.3591 139.978 46.7515C139.805 50.9926 139.887 55.2746 139.967 59.5728C140.046 63.8671 140.123 68.1777 139.938 72.4565C139.911 73.089 139.588 73.4634 139.338 73.729C139.244 73.8286 139.174 73.9057 139.12 73.9683C139.683 74.0928 140.407 74.3444 141.241 74.6841C142.351 75.1359 143.697 75.7608 145.197 76.5054C148.198 77.9951 151.833 79.9732 155.454 82.0259C162.238 85.8717 169.005 89.9954 171.494 91.6812L171.934 91.9858L172.287 92.229C174.103 93.4438 176.646 94.6446 179.071 95.9644C180.352 96.6615 181.593 97.3884 182.641 98.1577C183.675 98.9173 184.547 99.7368 185.081 100.632C185.218 100.806 185.285 101.043 185.322 101.26C185.364 101.506 185.38 101.798 185.378 102.112C185.373 102.741 185.294 103.499 185.17 104.238C185.046 104.977 184.875 105.711 184.683 106.292C184.587 106.582 184.482 106.845 184.369 107.054C184.267 107.243 184.122 107.461 183.914 107.567C179.7 109.721 173.905 112.254 168.156 114.739C162.401 117.227 156.693 119.667 152.636 121.643C140.888 127.365 130.925 130.579 119.074 135.65C117.179 136.461 115.221 137.495 113.282 138.066C111.317 138.645 109.296 138.777 107.211 137.769C102.423 135.996 98.0753 133.121 93.8428 130.833H93.8418L69.7969 117.761L69.7949 117.76C67.672 116.591 64.8595 115.243 62.126 113.824C59.4137 112.415 56.7852 110.938 55.1084 109.539L54.999 109.447L54.9775 109.306C54.8851 108.69 54.8731 107.83 54.8467 107.009C54.8215 106.228 54.7818 105.477 54.666 104.903C54.6126 104.868 54.5442 104.825 54.4639 104.773C54.263 104.643 53.9927 104.467 53.7197 104.282C53.4483 104.098 53.1677 103.899 52.9482 103.724C52.8392 103.637 52.7371 103.549 52.6572 103.467C52.6174 103.427 52.5764 103.381 52.542 103.333C52.5193 103.301 52.4878 103.251 52.4648 103.189L52.4453 103.122C51.9244 100.635 51.8108 97.5824 51.8135 94.5728C51.8162 91.5388 51.9353 88.583 51.8916 86.1831L51.3066 63.1343V63.1333C51.2741 61.7171 51.1332 59.5233 50.9873 56.9478C50.8417 54.3779 50.6914 51.4386 50.6406 48.5493C50.5899 45.6617 50.6391 42.8128 50.8936 40.4272C51.0208 39.2346 51.1998 38.149 51.4473 37.228C51.6934 36.3119 52.0138 35.5325 52.4365 34.9712L52.4941 34.895L52.5811 34.855C54.2312 34.1059 55.6503 33.6438 57.0283 33.2222C58.4088 32.7998 59.7361 32.4218 61.2344 31.8364C66.5907 29.7439 72.1743 28.2239 77.8203 26.8384C83.4746 25.4509 89.1779 24.201 94.8135 22.6421C102.524 20.5094 110.202 18.2672 118.021 16.2065C121.217 15.364 123.836 14.4639 126.581 13.6284C129.321 12.7946 132.159 12.034 135.749 11.4897L135.807 11.481L135.864 11.4907Z" class="ink-stroked" stroke-width="0.75"/>
<path d="M137.789 14.0898C137.374 17.0751 137.582 19.9992 137.865 22.9414C138.147 25.8716 138.506 28.8322 138.364 31.8281C137.89 41.8735 136.952 51.7263 137.396 61.7559C137.487 63.81 137.362 65.8258 137.309 67.8047C137.255 69.7939 137.271 71.7655 137.633 73.7881L137.7 74.168L137.319 74.2256C135.129 74.5537 131.739 75.5969 128.381 76.7842C125.031 77.9685 121.743 79.285 119.771 80.1445C117.506 81.1319 115.012 82.3767 112.541 83.2598C111.59 83.5996 110.566 83.8687 109.559 84.1299C108.545 84.3927 107.55 84.6475 106.63 84.9609L78.7324 94.6953L78.7305 94.6963C76.8371 95.3422 74.9946 95.9015 73.1494 96.4697C71.3025 97.0385 69.4504 97.6165 67.5254 98.3027C65.3669 99.0722 63.5101 99.8538 61.6875 100.64C59.8668 101.425 58.0743 102.216 56.0576 102.997L55.6592 103.151L55.5586 102.736C55.3829 102.013 55.013 100.57 54.6895 99.1455C54.5275 98.4325 54.3761 97.7188 54.2646 97.0957C54.1545 96.4801 54.0793 95.9287 54.0791 95.5518C54.0777 91.4366 54.3619 87.8015 54.1748 83.6797V83.6777L52.7998 49.3525V49.3506C52.7467 47.7917 52.8383 45.2252 52.8799 42.7676C52.9219 40.2809 52.9109 37.9274 52.6709 36.7188L52.6055 36.3877L52.9277 36.2871C56.4569 35.1903 59.8508 34.2686 63.3633 33.2344C65.0658 32.7331 66.6728 32.1697 68.3223 31.6152C69.9683 31.062 71.6507 30.5205 73.4834 30.0713C83.9369 27.5086 98.7751 24.6445 108.156 21.0518L108.173 21.0449L108.19 21.041L122.391 17.1172L122.397 17.1152L122.405 17.1133H122.407L122.442 17.1045C122.467 17.0989 122.502 17.0908 122.548 17.0801C122.64 17.0586 122.773 17.0278 122.938 16.9893C123.266 16.9121 123.718 16.8045 124.214 16.6855C124.711 16.5663 125.252 16.4356 125.755 16.3105L127.074 15.9707C131.145 14.8178 132.987 14.3753 137.357 13.668L137.858 13.5869L137.789 14.0898Z" class="ink-stroked" stroke-width="0.75"/>
<path d="M137.789 14.0898C137.374 17.0751 137.582 19.9992 137.865 22.9414C138.147 25.8716 138.506 28.8322 138.364 31.8281C137.89 41.8735 136.952 51.7263 137.396 61.7559C137.487 63.81 137.362 65.8258 137.309 67.8047C137.255 69.7939 137.271 71.7655 137.633 73.7881L137.7 74.168L137.319 74.2256C135.129 74.5537 131.739 75.5969 128.381 76.7842C125.031 77.9685 121.743 79.285 119.771 80.1445C117.506 81.1319 115.012 82.3767 112.541 83.2598C111.59 83.5996 110.566 83.8687 109.559 84.1299C108.545 84.3927 107.55 84.6475 106.63 84.9609L78.7324 94.6953L78.7305 94.6963C76.8371 95.3422 74.9946 95.9015 73.1494 96.4697C71.3025 97.0385 69.4504 97.6165 67.5254 98.3027C65.3669 99.0722 63.5101 99.8538 61.6875 100.64C59.8668 101.425 58.0743 102.216 56.0576 102.997L55.6592 103.151L55.5586 102.736C55.3829 102.013 55.013 100.57 54.6895 99.1455C54.5275 98.4325 54.3761 97.7188 54.2646 97.0957C54.1545 96.4801 54.0793 95.9287 54.0791 95.5518C54.0777 91.4366 54.3619 87.8015 54.1748 83.6797V83.6777L52.7998 49.3525V49.3506C52.7467 47.7917 52.8383 45.2252 52.8799 42.7676C52.9219 40.2809 52.9109 37.9274 52.6709 36.7188L52.6055 36.3877L52.9277 36.2871C56.4569 35.1903 59.8508 34.2686 63.3633 33.2344C65.0658 32.7331 66.6728 32.1697 68.3223 31.6152C69.9683 31.062 71.6507 30.5205 73.4834 30.0713C83.9369 27.5086 98.7751 24.6445 108.156 21.0518L108.172 21.0459L108.188 21.041C112.241 19.893 132.976 14.377 137.357 13.668L137.858 13.5869L137.789 14.0898ZM134.438 16.0459C132.173 15.6695 129.995 16.353 127.826 16.9844L127.823 16.9854L109.366 22.1836C108.666 22.454 107.785 22.7197 106.897 22.9785C105.992 23.2426 105.081 23.5013 104.314 23.7607C96.7215 26.3314 88.8328 28.0246 80.9287 29.9893C72.7542 32.0209 63.7341 34.7961 56.292 37.833C55.9449 40.3019 55.8748 43.8247 55.8857 47.4229C55.8969 51.106 55.9931 54.8742 55.9541 57.584V57.5869C55.9117 59.5296 55.9971 62.0192 56.0938 64.2363C56.1899 66.4409 56.2978 68.3925 56.2979 69.2266C56.2979 69.9221 56.471 74.4951 56.6572 80.0625C56.8431 85.6201 57.0417 92.1533 57.0918 96.7471C57.0963 97.1602 57.1966 97.4333 57.3389 97.6172C57.4809 97.8007 57.6927 97.9332 57.9883 98.0117C58.6004 98.1742 59.4836 98.0841 60.4941 97.833C62.5043 97.3334 64.7329 96.2787 65.7383 95.8809L68.2393 94.873C70.7444 93.8502 73.2644 92.7963 75.8047 91.8467C82.995 89.1586 90.4025 86.7974 97.7451 84.3828C105.092 81.9669 112.377 79.4965 119.343 76.585C121.588 75.6467 124.196 74.9221 126.653 74.1289C129.131 73.329 131.467 72.4562 133.257 71.2168C134.665 70.2222 135.011 68.8788 134.998 67.3984C134.992 66.65 134.893 65.8823 134.795 65.1143C134.71 64.4515 134.626 63.7828 134.614 63.1562V62.8838C134.656 61.7671 134.682 60.6682 134.709 59.5713C134.736 58.4751 134.762 57.3802 134.804 56.2764L135.367 38.3115V38.3086C135.428 36.79 135.695 31.4667 135.669 26.3594C135.656 23.8044 135.569 21.3155 135.349 19.3896C135.238 18.4252 135.096 17.6159 134.918 17.0156C134.829 16.7157 134.734 16.4799 134.637 16.3066C134.561 16.1715 134.492 16.0915 134.438 16.0459Z" class="bg-stroke" stroke-width="0.75"/>
<path d="M134.012 17.4312L134.313 17.7026L134.449 17.8257L134.437 18.0073C134.275 20.3293 134.319 22.619 134.402 24.9194C134.485 27.2106 134.608 29.5213 134.601 31.8608L134.605 32.2769C134.601 33.2514 134.492 34.2457 134.384 35.2153C134.259 36.3337 134.138 37.4194 134.162 38.4595C134.26 42.7207 134.033 46.9687 133.822 51.1978C133.611 55.4318 133.416 59.6488 133.572 63.8726C133.586 64.2481 133.625 64.7234 133.671 65.2583C133.716 65.7894 133.766 66.3743 133.798 66.9546C133.83 67.5344 133.844 68.1186 133.815 68.6489C133.787 69.1738 133.717 69.6728 133.565 70.0708L133.501 70.2388L133.33 70.2944C124.709 73.0692 116.149 76.2589 107.534 79.4243C98.9227 82.5886 90.258 85.7282 81.4404 88.395C79.8905 88.8638 74.6027 90.9411 69.6211 92.9165C67.1369 93.9016 64.7353 94.8592 62.9287 95.5708C62.0255 95.9266 61.2689 96.2212 60.7246 96.4282C60.4528 96.5316 60.2313 96.6144 60.0703 96.6714C59.9904 96.6997 59.9217 96.7231 59.8682 96.7397C59.8418 96.748 59.8151 96.7551 59.791 96.7612C59.7752 96.7653 59.7315 96.7765 59.6836 96.7788L59.4346 96.7915L59.3271 96.5649L59.1514 96.1938L59.1162 96.1206L59.1152 96.0386C59.0595 91.8224 58.7527 87.6576 58.4307 83.4878C58.1089 79.3217 57.7717 75.1486 57.6592 70.9321C57.4687 63.7889 56.9844 54.4998 56.9844 49.5493V38.5112L57.2861 38.4507C59.2662 38.0539 62.0837 37.1869 64.9668 36.2563C67.8383 35.3296 70.7722 34.3409 72.9512 33.7173C76.7394 32.5598 80.517 31.6725 84.3105 30.8198C88.1099 29.9658 91.9215 29.1474 95.7949 28.1265C100.837 26.7974 107.536 24.7712 112.28 22.8853C112.307 22.8747 112.335 22.8645 112.352 22.8579C112.354 22.8569 112.356 22.8558 112.358 22.855C112.36 22.8542 112.362 22.8545 112.363 22.854L112.366 22.8521H112.367C112.368 22.8519 112.37 22.8505 112.371 22.8501C112.373 22.8498 112.378 22.8543 112.387 22.8579L112.385 22.8481C112.385 22.848 112.387 22.8484 112.388 22.8481C112.39 22.8476 112.393 22.8463 112.397 22.8452C112.406 22.843 112.419 22.8397 112.436 22.8354C112.469 22.8269 112.519 22.814 112.585 22.7974C112.716 22.764 112.91 22.7147 113.157 22.6519C113.651 22.5262 114.361 22.3461 115.224 22.1265C116.949 21.6871 119.285 21.0909 121.729 20.4644C126.62 19.2105 131.935 17.836 133.658 17.3491L133.857 17.2935L134.012 17.4312ZM112.477 23.2124L112.441 23.0757C112.43 23.0615 112.419 23.0472 112.405 23.0337L112.477 23.2124Z" fill="#D97757" stroke="#222222" stroke-width="0.75"/>
<path d="M138.918 74.9929L139.028 75.1052C140.415 76.5141 142.708 77.8029 145.207 79.0388C147.677 80.2605 150.355 81.4334 152.395 82.5837C157.455 85.4389 163.235 88.2572 167.612 91.6511C170.347 93.3103 173.172 94.9837 176.001 96.5642C178.62 98.028 181.166 99.0987 183.562 100.834L184.073 101.204L183.504 101.476C180.605 102.859 177.455 104.451 174.385 105.772L173.075 106.32C165.397 109.435 157.708 112.126 150.479 115.674C140.19 120.724 129.071 124.972 118.247 129.448L118.246 129.449C117.927 129.58 117.361 129.819 116.671 130.11C115.982 130.401 115.172 130.742 114.37 131.072C113.569 131.402 112.773 131.722 112.112 131.973C111.465 132.219 110.913 132.412 110.619 132.469L110.504 132.491L110.397 132.444C110.049 132.291 109.863 132.199 109.714 132.079C109.641 132.02 109.581 131.958 109.527 131.902C109.472 131.845 109.408 131.778 109.312 131.688L109.311 131.687C108.503 130.933 107.415 130.323 106.229 129.734C105.063 129.155 103.787 128.59 102.69 127.949C99.5436 126.109 96.6327 124.343 93.1543 122.802C83.0311 118.318 74.204 112.596 64.79 107.653C62.7855 106.926 59.8229 105.376 57.9541 104.461L57.0459 104.016L58.0244 103.761C60.2134 103.191 62.2804 102.36 64.3105 101.513C66.333 100.67 68.3275 99.8061 70.3369 99.1921C82.1181 95.5912 93.2571 91.2513 104.934 87.406C108.63 86.1888 112.611 85.0416 116.159 83.783C122.062 81.6888 127.711 79.4989 133.738 77.491L134.068 77.3494L134.305 77.241C134.899 76.9569 135.776 76.465 136.604 76.0076C137.071 75.7498 137.521 75.5039 137.879 75.323C138.057 75.2328 138.22 75.156 138.354 75.1003C138.421 75.0726 138.487 75.0473 138.547 75.0291C138.6 75.0129 138.679 74.993 138.761 74.9929H138.918Z" class="bg-stroke" stroke-width="0.75"/>
<path d="M138.614 79.1956C141.316 80.4878 145.647 83.1379 149.947 85.8655C154.263 88.6026 158.546 91.4159 161.197 93.0676L161.327 93.1604C161.608 93.3886 161.742 93.7003 161.779 94.009C161.821 94.3518 161.747 94.7017 161.634 94.9846L161.588 95.0979L161.484 95.1624C160.429 95.8225 158.817 96.5149 157.187 97.1721C155.54 97.8361 153.871 98.4661 152.648 99.0149C148.95 100.675 145.366 102.3 141.537 103.848C139.048 104.854 136.544 105.796 134.044 106.734C131.543 107.672 129.045 108.607 126.562 109.6C117.45 113.243 108.62 117.766 98.9111 120.849L98.8066 120.882L98.7012 120.854C97.3204 120.485 96.3965 120.111 95.1484 119.633L95.1035 119.616L95.0654 119.589C94.1025 118.906 92.9582 118.314 91.792 117.748C90.6369 117.188 89.4479 116.648 88.4424 116.083C87.5886 115.603 86.1734 114.835 84.4863 113.913C82.8006 112.993 80.8466 111.922 78.9219 110.841C76.9976 109.761 75.0992 108.669 73.5254 107.706C71.9611 106.75 70.6891 105.904 70.0381 105.319L70.0107 105.294L69.9893 105.264C69.7605 104.958 69.6975 104.618 69.8311 104.287C69.9498 103.993 70.203 103.763 70.4688 103.581C71.006 103.213 71.8085 102.904 72.5381 102.64C77.4679 100.859 82.3588 99.025 87.2539 97.1917C90.9247 95.8168 94.5979 94.4423 98.29 93.0911L101.989 91.7483C103.746 91.0791 105.731 90.495 107.684 89.9124C109.646 89.3268 111.578 88.7423 113.256 88.0676C121.421 84.7841 129.108 81.8997 137.77 79.1995L137.816 79.1848L137.865 79.1829L138.437 79.1584L138.53 79.1545L138.614 79.1956Z" class="ink-stroked" stroke-width="0.75"/>
<path d="M130.96 100.918C131.328 100.998 131.743 101.204 132.153 101.454C132.57 101.708 133.011 102.026 133.438 102.355C134.285 103.01 135.113 103.741 135.573 104.122L136.087 104.546L135.457 104.765C129.183 106.942 123.116 109.369 117.29 112.035L117.146 112.101L116.997 112.043C116.879 111.997 116.734 111.914 116.584 111.82C116.428 111.722 116.245 111.597 116.047 111.458C115.65 111.177 115.177 110.824 114.705 110.463C113.776 109.754 112.791 108.971 112.443 108.704L111.905 108.29L112.542 108.054C118.693 105.779 124.76 103.405 130.738 100.938L130.846 100.893L130.96 100.918Z" class="bg-stroke" stroke-width="0.75"/>
<path d="M85.4102 105.389C85.8974 105.607 87.2335 106.414 88.542 107.222C89.2037 107.631 89.8688 108.046 90.4316 108.398C90.9955 108.751 91.4549 109.04 91.709 109.197L92.334 109.583L91.6543 109.863C90.9303 110.161 89.5393 110.801 88.1865 111.406C87.5138 111.706 86.8527 111.998 86.2969 112.228C85.7515 112.454 85.2791 112.634 84.998 112.701L84.8447 112.737L84.7119 112.654C82.5005 111.267 80.2806 110.043 77.9404 108.738L77.209 108.33L78 108.056C80.366 107.238 82.7883 106.273 85.123 105.38L85.2686 105.325L85.4102 105.389Z" class="bg-stroke" stroke-width="0.75"/>
<path d="M134.278 92.6843C134.465 92.7043 134.667 92.7777 134.861 92.8679C135.061 92.9608 135.28 93.0846 135.507 93.2263C135.961 93.51 136.472 93.8818 136.973 94.2664C137.474 94.6518 137.973 95.0549 138.4 95.405C138.832 95.7582 139.185 96.0517 139.409 96.2253L139.921 96.6218L139.322 96.8679C136.802 97.9052 134.295 98.9585 131.804 100.027L131.73 100.058L131.65 100.057L131.487 100.055L131.436 100.054L131.385 100.04C131.241 99.9965 131.076 99.9066 130.917 99.8074C130.75 99.7034 130.56 99.5702 130.357 99.4197C129.951 99.1182 129.477 98.7335 129.008 98.3406C128.077 97.5615 127.122 96.7109 126.772 96.4128L126.322 96.0291L126.861 95.7849C129.231 94.716 131.645 93.6901 134.1 92.7087L134.186 92.6746L134.278 92.6843Z" class="bg-stroke" stroke-width="0.75"/>
<path d="M140.269 97.1018C140.509 97.2221 140.855 97.462 141.233 97.7434C141.619 98.0308 142.062 98.3798 142.501 98.7346C143.37 99.437 144.265 100.193 144.66 100.515L145.146 100.911L144.566 101.152C142.075 102.186 139.427 103.193 136.898 104.184L136.739 104.246L136.588 104.167C136.522 104.133 136.41 104.055 136.292 103.971C136.163 103.879 135.996 103.758 135.806 103.616C135.424 103.334 134.94 102.969 134.454 102.601C133.477 101.86 132.5 101.112 132.29 100.953L131.771 100.562L132.369 100.309L139.954 97.0911L140.113 97.0237L140.269 97.1018Z" class="bg-stroke" stroke-width="0.75"/>
<path d="M79.1611 101.489C79.2099 101.507 79.2684 101.542 79.2939 101.556C79.3356 101.58 79.3897 101.613 79.4531 101.651C79.5809 101.729 79.7547 101.836 79.959 101.964C80.3679 102.219 80.907 102.56 81.4658 102.913C82.5897 103.622 83.7823 104.373 84.1953 104.607L84.8896 105.001L84.1436 105.284C83.5352 105.515 81.9801 106.165 80.459 106.787C79.7017 107.096 78.9547 107.398 78.3457 107.635C77.7498 107.866 77.254 108.048 77.0186 108.103L76.8633 108.139L76.7305 108.053C74.6082 106.694 73.5286 106.048 71.1328 105.052C70.7377 104.887 70.7426 104.317 71.1514 104.167L72.083 103.829C74.2963 103.038 76.7567 102.229 78.9111 101.487L79.0361 101.444L79.1611 101.489Z" class="bg-stroke" stroke-width="0.75"/>
<path d="M93.3193 102.284C95.1499 103.615 97.0029 104.932 98.8779 106.237L99.458 106.64L98.7979 106.894C96.964 107.599 95.0508 108.443 93.2363 109.212L93.0586 109.287L92.8945 109.187C90.8365 107.926 88.7531 106.683 86.6455 105.457L85.9805 105.071L86.6943 104.784C88.7902 103.946 90.878 103.099 92.9561 102.241L93.1494 102.161L93.3193 102.284Z" class="bg-stroke" stroke-width="0.75"/>
<path d="M129.532 88.7002C129.775 88.7958 130.113 89.0089 130.468 89.2559C130.833 89.51 131.249 89.8239 131.661 90.1436C132.48 90.7792 133.312 91.4634 133.679 91.7539L134.194 92.1621L133.579 92.3975C130.92 93.4141 128.855 94.3296 126.319 95.4717L126.205 95.5225L126.083 95.4951C125.926 95.46 125.759 95.3821 125.601 95.293C125.437 95.2009 125.257 95.0836 125.071 94.9512C124.7 94.6861 124.282 94.3468 123.873 93.999C123.076 93.321 122.226 92.5315 121.882 92.2334L121.391 91.8076L122.004 91.5957C124.566 90.7081 126.802 89.7378 129.249 88.7031L129.39 88.6436L129.532 88.7002Z" class="bg-stroke" stroke-width="0.75"/>
<path d="M92.7568 109.927C93.3789 110.138 94.447 110.711 95.4727 111.294C96.5095 111.884 97.5476 112.511 98.1182 112.848L98.7266 113.207L98.0889 113.51C96.1676 114.421 94.231 115.407 92.3242 116.352L92.165 116.431L92.0039 116.358C90.0913 115.496 87.7286 114.147 85.9346 113.172L85.1445 112.743L86.0049 112.484C86.7546 112.258 87.9335 111.791 89.1582 111.29C90.3725 110.794 91.6279 110.266 92.5029 109.932L92.6289 109.884L92.7568 109.927Z" class="bg-stroke" stroke-width="0.75"/>
<path d="M100.345 99.4688C100.503 99.5078 100.687 99.5976 100.869 99.7002C101.059 99.8073 101.276 99.9464 101.509 100.104C101.975 100.421 102.521 100.828 103.063 101.246C103.607 101.665 104.15 102.098 104.612 102.468C105.077 102.84 105.454 103.144 105.672 103.312L106.176 103.7L105.593 103.953L100.283 106.256L100.098 106.336L99.9287 106.226C97.9893 104.955 96.1661 103.647 94.3164 102.333L93.7344 101.919L94.4043 101.675C96.3304 100.971 98.2347 100.242 100.115 99.4854L100.228 99.4404L100.345 99.4688Z" class="bg-stroke" stroke-width="0.75"/>
<path d="M107.656 96.9258C107.866 96.9243 108.083 96.9897 108.285 97.0762C108.493 97.1648 108.714 97.2882 108.938 97.4316C109.385 97.7185 109.877 98.1039 110.35 98.5029C111.281 99.2894 112.219 100.202 112.581 100.521L113.041 100.929L112.469 101.151C110.514 101.914 108.552 102.72 106.602 103.502L106.402 103.581L106.232 103.45L101.345 99.6689L100.793 99.2422L101.453 99.0166L107.538 96.9453L107.596 96.9258H107.656Z" class="bg-stroke" stroke-width="0.75"/>
<path d="M87.4707 98.3706C87.8187 98.3903 88.2396 98.5793 88.6426 98.8042C89.0626 99.0386 89.526 99.3486 89.9766 99.6714C90.8643 100.307 91.7755 101.048 92.1865 101.355L92.7236 101.756L92.1006 102.004C89.9355 102.864 87.8078 103.763 85.627 104.637L85.4609 104.704L85.3047 104.617C83.6061 103.671 81.9219 102.714 80.2529 101.745L79.5098 101.314L80.332 101.062C82.244 100.477 85.3705 99.1611 87.3125 98.396L87.3887 98.3657L87.4707 98.3706Z" class="bg-stroke" stroke-width="0.75"/>
<path d="M115.094 94.1064C115.276 94.1192 115.465 94.1917 115.638 94.2764C115.817 94.3645 116.011 94.4824 116.211 94.6182C116.61 94.8899 117.06 95.2496 117.501 95.623C117.943 95.9974 118.385 96.3925 118.771 96.7373C119.16 97.0858 119.485 97.3771 119.702 97.5547L120.188 97.9512L119.608 98.1914C117.689 98.9878 115.785 99.7976 113.895 100.623L113.814 100.658L113.728 100.654L113.294 100.635L113.191 100.631L113.105 100.574C111.703 99.6595 110.014 98.0637 108.832 97.0205L108.336 96.583L108.966 96.3828C111.245 95.6569 112.76 95.0297 114.924 94.1338L115.006 94.1006L115.094 94.1064Z" class="bg-stroke" stroke-width="0.75"/>
<path d="M120.279 98.5361C120.429 98.5783 120.595 98.67 120.752 98.7695C120.917 98.874 121.103 99.0076 121.3 99.1592C121.695 99.4627 122.154 99.8515 122.612 100.252C123.544 101.066 124.449 101.908 124.89 102.273L125.383 102.682L124.785 102.912L118.909 105.173L118.779 105.224L118.648 105.177C118.363 105.074 117.985 104.823 117.599 104.534C117.2 104.236 116.751 103.866 116.312 103.488C115.434 102.735 114.564 101.929 114.189 101.595L113.747 101.2L114.294 100.97L120.032 98.5518L120.153 98.501L120.279 98.5361Z" class="bg-stroke" stroke-width="0.75"/>
<path d="M141.183 89.946C141.549 90.0121 142.004 90.2181 142.467 90.4705C142.94 90.7283 143.46 91.056 143.968 91.3953C144.976 92.0682 145.988 92.822 146.489 93.1707L147.037 93.5515L146.427 93.821L141.242 96.1101L141.024 96.2224L140.913 96.28L140.79 96.2585C140.406 96.1929 139.96 95.9635 139.522 95.6853C139.074 95.4 138.59 95.0346 138.122 94.656C137.193 93.9044 136.277 93.0582 135.809 92.656L135.352 92.2634L135.905 92.0271C137.522 91.3335 139.333 90.632 140.976 89.9675L141.076 89.9265L141.183 89.946Z" class="bg-stroke" stroke-width="0.75"/>
<path d="M148.527 86.8354C149.28 87.1537 150.288 87.7609 151.272 88.3853C152.273 89.0201 153.248 89.6722 153.983 90.1187L154.69 90.5483L153.901 90.7964C152.399 91.2694 149.917 92.3487 148.379 92.978L148.365 92.9839L148.35 92.9878C148.262 93.0154 148.162 93.057 148.027 93.0513C147.938 93.0475 147.906 93.037 147.646 93.0337L147.546 93.0317L147.46 92.981C145.793 91.9985 144.301 90.9321 142.782 89.8774L142.207 89.478L142.858 89.2212C144.764 88.4673 146.574 87.8088 148.191 86.8579L148.354 86.7622L148.527 86.8354Z" class="bg-stroke" stroke-width="0.75"/>
<path d="M113.185 101.461C113.502 101.542 113.88 101.767 114.256 102.029C114.644 102.299 115.076 102.641 115.509 102.998C116.389 103.724 117.266 104.498 117.901 104.95L118.507 105.381L117.802 105.613C115.904 106.236 113.878 107.062 112.01 107.785L111.911 107.823L111.807 107.804C111.642 107.774 111.464 107.693 111.296 107.602C111.121 107.506 110.926 107.382 110.723 107.241C110.315 106.959 109.85 106.594 109.394 106.219C108.485 105.472 107.571 104.649 107.206 104.338L106.731 103.934L107.312 103.704L112.954 101.476L113.066 101.431L113.185 101.461Z" class="bg-stroke" stroke-width="0.75"/>
<path d="M98.8975 113.712C99.0401 113.737 99.2101 113.809 99.3721 113.889C99.5445 113.973 99.7466 114.085 99.9668 114.214C100.408 114.472 100.94 114.809 101.483 115.161C102.581 115.872 103.711 116.633 104.301 116.971L105.01 117.376L104.24 117.649C102.646 118.216 100.507 119.261 98.9258 119.993L98.75 120.074L98.5811 119.979C96.7522 118.93 94.9362 117.873 93.1328 116.805L92.4707 116.412L93.1885 116.133C95.0262 115.417 96.8842 114.546 98.6777 113.739L98.7832 113.691L98.8975 113.712Z" class="bg-stroke" stroke-width="0.75"/>
<path d="M154.74 90.8472C154.878 90.873 155.041 90.937 155.202 91.0103C155.37 91.0868 155.565 91.1867 155.775 91.3013C156.197 91.5309 156.701 91.829 157.218 92.1401C158.263 92.7699 159.348 93.4444 159.989 93.7651L160.715 94.1284L159.968 94.4458C158.076 95.2489 155.839 96.0751 153.899 96.8306L153.856 96.8481L153.81 96.854L153.182 96.9302L153.069 96.9448L152.968 96.8931C151.569 96.1905 149.895 94.8891 148.717 94.0337L148.132 93.6089L148.816 93.3745C151.031 92.6175 152.548 91.9034 154.497 90.8833L154.612 90.8228L154.74 90.8472Z" class="bg-stroke" stroke-width="0.75"/>
<path d="M147.543 94.0481C147.605 94.0801 147.713 94.1497 147.834 94.2297C147.964 94.3157 148.13 94.4297 148.321 94.5608C148.704 94.8232 149.189 95.1603 149.677 95.5022C150.656 96.1878 151.646 96.8879 151.883 97.051L152.427 97.426L151.827 97.7014C149.855 98.6069 147.895 99.5243 145.946 100.452L145.888 100.481L145.822 100.488L145.595 100.51L145.461 100.523L145.35 100.448C144.251 99.714 142.339 98.0202 141.342 97.1868L140.859 96.7844L141.442 96.551C143.339 95.7923 145.345 94.8661 147.219 94.0383L147.383 93.9661L147.543 94.0481Z" class="bg-stroke" stroke-width="0.75"/>
<path d="M103.389 92.6987C103.545 92.7244 103.707 92.801 103.852 92.8823C104.004 92.9681 104.172 93.0794 104.346 93.2056C104.693 93.4582 105.087 93.7854 105.472 94.1206C106.237 94.7878 107.003 95.5222 107.295 95.7876L107.762 96.2124L107.165 96.4194L100.835 98.6118L100.746 98.6431L100.653 98.6284C100.282 98.5694 99.8899 98.3889 99.5146 98.1665C99.1344 97.9411 98.7444 97.6555 98.373 97.3589C97.6413 96.7745 96.9207 96.0943 96.5098 95.7427L96.0361 95.3374L96.6162 95.1089C98.9519 94.1896 100.74 93.5107 103.213 92.7124L103.3 92.6841L103.389 92.6987Z" class="bg-stroke" stroke-width="0.75"/>
<path d="M125.095 85.0879C125.416 85.2995 126.045 85.8085 126.683 86.3242C127.333 86.8506 128.004 87.3957 128.436 87.709L128.971 88.0967L128.363 88.3574C125.929 89.4013 123.643 90.3531 121.021 91.2041L120.834 91.2646L120.678 91.1465L117.291 88.5723L116.73 88.1465L117.396 87.9189C119.762 87.109 122.419 85.9866 124.749 85.0537L124.931 84.9805L125.095 85.0879Z" class="bg-stroke" stroke-width="0.75"/>
<path d="M96.0342 95.5312C96.1492 95.6037 96.3878 95.7978 96.6631 96.0273C96.9498 96.2664 97.3056 96.5693 97.6709 96.8809C98.4078 97.5094 99.1744 98.1659 99.5254 98.4355L100.06 98.8447L99.4307 99.083C98.6496 99.379 97.5217 99.8769 96.3506 100.352C95.2047 100.816 94.0169 101.258 93.1914 101.4L93.0352 101.428L92.9072 101.335C91.3651 100.217 90.4097 99.552 88.7051 98.5693L88.0186 98.1738L88.7607 97.8936C91.1339 96.9987 93.2877 96.2857 95.7178 95.4922L95.8848 95.4375L96.0342 95.5312Z" class="bg-stroke" stroke-width="0.75"/>
<path d="M110.898 90.322C111.179 90.3805 111.506 90.5679 111.814 90.7771C112.137 90.9955 112.491 91.2738 112.837 91.5603C113.184 91.8474 113.529 92.1487 113.835 92.4158C114.144 92.6856 114.407 92.916 114.599 93.0701L115.148 93.5125L114.475 93.7205C112.819 94.2317 110.024 95.3867 108.326 96.0427L108.174 96.1023L108.027 96.031C107.832 95.9362 107.541 95.7258 107.228 95.4851C106.903 95.2359 106.524 94.9275 106.141 94.6111C105.366 93.9715 104.588 93.309 104.177 92.9949L103.613 92.5652L104.286 92.3416C106.375 91.6463 108.596 90.9844 110.711 90.3308L110.804 90.3025L110.898 90.322Z" class="bg-stroke" stroke-width="0.75"/>
<path d="M99.9658 107.023C101.312 107.883 103.036 109.191 104.319 110.105L104.84 110.477L104.262 110.75C102.709 111.485 101.104 112.155 99.5127 112.834L99.3262 112.913L99.1582 112.801C97.353 111.603 96.1106 110.916 94.0918 109.844L93.3613 109.455L94.1348 109.162C95.9533 108.472 97.8108 107.711 99.626 106.991L99.8037 106.921L99.9658 107.023Z" class="bg-stroke" stroke-width="0.75"/>
<path d="M106.312 104.237C106.566 104.329 106.93 104.571 107.306 104.848C107.697 105.136 108.149 105.497 108.596 105.866C109.484 106.599 110.383 107.387 110.736 107.685L111.209 108.083L110.638 108.319C109.091 108.955 107.366 109.589 105.793 110.192L105.605 110.264L105.441 110.147L101.044 107.014L100.502 106.627L101.113 106.365L106.036 104.245L106.173 104.186L106.312 104.237Z" class="bg-stroke" stroke-width="0.75"/>
<path d="M111.33 108.61C111.644 108.668 112.049 108.891 112.448 109.146C112.865 109.413 113.335 109.755 113.797 110.109C114.26 110.464 114.72 110.833 115.118 111.156C115.519 111.481 115.852 111.754 116.068 111.923L116.553 112.3L115.996 112.559L111.666 114.572L111.61 114.597L111.549 114.604L111.316 114.631L111.199 114.643L111.096 114.587C111.019 114.545 110.899 114.461 110.769 114.366C110.629 114.265 110.454 114.133 110.256 113.981C109.859 113.678 109.361 113.289 108.857 112.893C107.846 112.098 106.815 111.279 106.491 111.034L105.921 110.603L106.599 110.379C108.151 109.864 109.619 109.242 111.121 108.632L111.223 108.591L111.33 108.61Z" class="bg-stroke" stroke-width="0.75"/>
<path d="M105.45 111.052L110.21 114.635L110.748 115.04L110.119 115.284L105.713 116.99L105.515 117.068L105.348 116.937C104.22 116.058 101.739 114.491 100.416 113.601L99.8076 113.192L100.495 112.938C102.031 112.37 103.574 111.664 105.074 111.008L105.275 110.92L105.45 111.052Z" class="bg-stroke" stroke-width="0.75"/>
<path d="M143.016 83.5742C143.145 83.6009 143.3 83.6614 143.455 83.7305C143.617 83.8024 143.803 83.8951 144.003 84.001C144.403 84.2129 144.875 84.4844 145.344 84.7637C146.279 85.3207 147.232 85.925 147.604 86.1523L148.262 86.5557L147.538 86.8242C145.67 87.5162 144.155 88.1334 142.354 88.9062L142.297 88.9307L142.234 88.9355C142.031 88.9513 141.828 88.9668 141.624 88.9824L141.52 88.9902L141.426 88.9434C140.07 88.2591 138.481 87.0264 137.34 86.1943L136.745 85.7607L137.445 85.5342C139.492 84.8732 140.851 84.3779 142.8 83.5938L142.904 83.5518L143.016 83.5742Z" class="bg-stroke" stroke-width="0.75"/>
<path d="M136.239 86.1382C136.46 86.2276 136.792 86.4332 137.149 86.6724C137.517 86.9188 137.945 87.2239 138.37 87.5347C139.215 88.1521 140.081 88.8156 140.441 89.0825L140.991 89.4897L140.353 89.7339C138.623 90.3957 136.883 91.0474 135.135 91.688L135.041 91.7222L134.943 91.7056C134.796 91.6809 134.636 91.612 134.488 91.5366C134.332 91.4571 134.157 91.3528 133.973 91.2349C133.604 90.9988 133.178 90.6931 132.758 90.3784C131.935 89.7624 131.056 89.0501 130.729 88.8013L130.197 88.3979L130.818 88.1538L135.962 86.1372L136.101 86.0825L136.239 86.1382Z" class="bg-stroke" stroke-width="0.75"/>
<path d="M125.799 96.4473C126.954 97.2268 129.166 99.2059 130.233 100.106L130.709 100.508L130.132 100.741L126.074 102.379L125.951 102.429L125.824 102.391C125.77 102.374 125.726 102.347 125.707 102.336C125.682 102.321 125.657 102.303 125.633 102.286C125.585 102.252 125.527 102.208 125.465 102.157C125.34 102.056 125.178 101.917 124.993 101.756C124.622 101.431 124.147 101.003 123.668 100.565C123.189 100.128 122.703 99.6803 122.31 99.3164C121.915 98.9512 121.614 98.6721 121.503 98.5703L121.062 98.168L121.616 97.9453L125.45 96.4102L125.634 96.3359L125.799 96.4473Z" class="bg-stroke" stroke-width="0.75"/>
<path d="M131.669 82.6602C131.778 82.6909 131.902 82.7553 132.013 82.8193C132.133 82.8884 132.271 82.9775 132.42 83.0771C132.718 83.2769 133.072 83.5321 133.425 83.793C133.778 84.0543 134.132 84.3241 134.433 84.5527C134.735 84.7832 134.978 84.9686 135.112 85.0674L135.658 85.4688L135.028 85.7188L129.816 87.7812L129.63 87.8555L129.466 87.7422L125.904 85.293L125.318 84.8896L125.982 84.6338C127.878 83.9038 129.486 83.3135 131.449 82.665L131.559 82.6289L131.669 82.6602Z" class="bg-stroke" stroke-width="0.75"/>
<path d="M120.807 92.1655C120.96 92.2071 121.122 92.2921 121.275 92.3872C121.434 92.4855 121.607 92.6101 121.787 92.7495C122.147 93.0288 122.553 93.3832 122.948 93.7456C123.733 94.4646 124.52 95.255 124.845 95.563L125.276 95.9731L124.722 96.186L120.79 97.6938L120.582 97.7729L120.412 97.6284L116.474 94.2681L115.996 93.8618L116.581 93.6333C117.824 93.1492 119.316 92.6356 120.58 92.1753L120.691 92.1343L120.807 92.1655Z" class="bg-stroke" stroke-width="0.75"/>
<path d="M138.366 80.4971C138.55 80.5571 138.824 80.7155 139.101 80.8896C139.393 81.0733 139.734 81.3039 140.07 81.5381C140.744 82.0069 141.414 82.5007 141.665 82.6885L142.228 83.1094L141.564 83.3428L136.339 85.1787L136.168 85.2383L136.015 85.1416L132.55 82.9521L131.852 82.5107L132.643 82.2754C134.499 81.7227 136.328 81.131 138.126 80.5L138.246 80.458L138.366 80.4971Z" class="bg-stroke" stroke-width="0.75"/>
<path d="M116.727 88.3396C116.851 88.4241 117.064 88.6051 117.306 88.8162C117.555 89.034 117.858 89.3055 118.173 89.5867C118.81 90.1554 119.491 90.7581 119.924 91.0837L120.477 91.4998L119.827 91.7361L115.688 93.241L115.493 93.3123L115.33 93.1843C114.307 92.386 113.146 91.3536 112.169 90.533L111.66 90.1062L112.289 89.8914C113.692 89.4133 115.011 88.8559 116.376 88.3025L116.561 88.2273L116.727 88.3396Z" class="bg-stroke" stroke-width="0.75"/>
<path d="M183.864 102.599C183.65 103.422 183.378 104.317 183.267 105.086L183.238 105.282L183.061 105.368C180.795 106.472 178.248 107.866 175.934 108.869C173.263 110.026 170.445 111.13 167.648 112.239C164.849 113.349 162.068 114.465 159.461 115.65C152.873 118.645 146.563 122.158 140.145 125.302C136.834 126.922 131.691 128.831 128.17 130.278L128.168 130.279C122.565 132.539 117.048 134.89 111.622 137.332L111.13 137.553L111.095 137.013C111.015 135.789 110.97 134.614 110.751 133.441L110.691 133.127L110.992 133.019C124.289 128.256 137.208 122.449 149.869 116.956C150.717 116.588 151.856 115.993 153.023 115.413C154.159 114.849 155.325 114.297 156.212 114.032C157.374 113.421 160.473 112.137 163.608 110.897C166.758 109.652 169.983 108.435 171.395 107.965C172.821 107.137 175.219 106.16 177.518 105.171C179.871 104.157 182.11 103.134 183.268 102.212L184.147 101.51L183.864 102.599Z" class="bg-stroke" stroke-width="0.75"/>
<path d="M56.8594 105.29C57.3684 105.521 57.8778 105.85 58.376 106.166C58.8837 106.488 59.3906 106.804 59.9316 107.042C67.0143 110.164 72.927 114.097 79.3857 117.605C82.0194 119.035 85.4052 120.808 88.1729 122.064C93.4816 124.473 98.3518 126.809 103.097 129.729C103.883 130.197 105.056 130.594 106.29 131.047C107.493 131.489 108.755 131.985 109.597 132.653L109.706 132.747C110.225 133.233 110.348 133.93 110.357 134.549C110.362 134.886 110.334 135.224 110.303 135.53C110.271 135.844 110.239 136.111 110.228 136.34L110.207 136.759L109.793 136.692C108.925 136.551 107.647 136.021 106.202 135.315C104.743 134.601 103.071 133.685 101.399 132.74C98.0382 130.841 94.7065 128.841 93.0254 128.071C85.1184 124.446 77.9293 120.13 70.6475 116.057C68.4904 114.85 66.1985 113.736 63.8877 112.611C61.5805 111.487 59.2541 110.351 57.0439 109.11L56.8604 109.006L56.8525 108.795C56.8084 107.49 56.7173 107.037 56.3447 105.736L56.1211 104.956L56.8594 105.29Z" class="bg-stroke" stroke-width="0.75"/>
</svg>
