<svg width="236" height="150" viewBox="0 0 236 150" fill="none" xmlns="http://www.w3.org/2000/svg">
<style>
  .bg { fill: #F2EFE9; }
  .ink-stroked { fill: #222222; stroke: #222222; }
  @media (prefers-color-scheme: dark) {
    .bg { fill: #1C1A17; }
    .ink-stroked { fill: #F2EFE9; stroke: #F2EFE9; }
  }
</style>
<rect class="bg" width="236" height="150" rx="8"/>
<path d="M127.628 30.0244C129.977 27.7135 134.167 23.8115 133.778 24.1114C133.39 24.4112 142.191 17.4442 150.596 18.983C159.001 20.5217 165.898 27.4414 167.508 32.085C169.119 36.7287 168.516 44.1018 167.508 48.794C166.501 53.4863 158.591 66.0933 154.127 70.9397C149.663 75.7861 147.602 76.9848 144.616 80.2006C142.07 78.3724 140.871 78.7816 137.906 78.3984C131.476 77.5682 124.772 78.2912 118.39 77.4751C113.613 76.8636 108.248 75.161 103.606 73.8264C102.663 72.2559 101.167 70.604 100.423 69.5369C99.6792 68.4699 93.8845 63.1294 90.7309 54.745C87.5773 46.3607 87.8352 38.7906 89.251 33.8885C90.3659 30.0276 94.5142 23.2953 98.574 21.2051C102.634 19.1149 107.253 17.7997 113.003 19.6963C118.753 21.5929 122.631 24.6536 127.628 30.0244Z" fill="#D97757"/>
<path class="ink-stroked" d="M131.594 92.9696C134.545 92.7 137.958 92.0907 140.829 91.4315C146.715 90.0818 147.084 89.3482 149.969 86.9312C152.855 84.5143 175.733 70.2037 181.248 69.1203C183.137 68.7447 185.111 69.104 186.702 70.1139C187.984 70.9213 188.912 72.1542 189.165 73.6262C190.133 79.2362 180.982 84.2617 177.103 87.839C174.083 90.624 168.917 93.2401 165.279 95.747C154.047 103.488 142.453 113.796 127.831 115.065C115.785 115.192 105.674 112.416 93.7271 115.983C89.183 117.341 73.8288 133.981 71.31 130.553C71.2945 127.121 81.8183 119.834 84.7921 117.546C89.5387 113.893 93.7409 112.128 99.8639 111.334C103.962 110.835 108.103 110.704 112.228 110.943C120.505 111.455 128.071 112.874 136.212 110.262C138.76 109.445 141.239 108.079 143.51 106.756C149.045 103.53 154.205 99.742 159.483 96.1777C163.389 93.54 167.5 91.0949 171.307 88.3424C174.189 86.2588 185.024 78.1344 186.191 75.7271C186.504 75.082 186.585 74.3774 186.285 73.715C185.691 72.4031 184.125 71.8998 182.807 71.3954C174.334 73.3383 165.248 80.4907 159.483 83.6551C157.384 84.9397 154.692 86.5617 152.156 88.6643C149.621 90.767 149.332 91.7887 145.177 93.1622C136.35 96.049 126.184 96.5609 116.862 96.8445C111.042 97.0209 103.169 93.7936 108.722 88.8749C110.028 87.7179 115.048 87.7297 118.974 87.6464C118.757 87.1019 109.364 79.9355 107.677 78.2015C96.3179 74.9803 84.549 73.0493 75.2435 81.4984C69.3926 86.8108 65.4069 91.0624 57.6826 94.3961C55.336 95.4082 50.3097 97.442 47.8101 97.7461C46.9602 97.4485 47.2821 97.6855 46.7617 97.0675L46.8679 96.5793C48.9651 94.1061 58.7682 90.9433 62.4338 88.482C68.3449 84.5129 72.5644 78.4645 78.6232 75.1827C85.8607 71.2623 95.7895 71.9247 103.607 73.8265C108.248 75.161 113.614 76.8636 118.391 77.4752C124.772 78.2913 131.476 77.5683 137.907 78.3985C140.871 78.7816 142.071 78.3725 144.616 80.2007C149.432 86.7188 140.936 88.8251 135.445 89.1509C134.191 90.1077 132.399 91.3925 131.343 92.4619L131.345 92.8083L131.594 92.9696Z"/>
<path d="M107.559 78.677C111.398 79.6382 115.289 80.2612 119.247 80.6195C126.114 81.2419 136.415 80.1617 142.787 82.2323C141.699 83.355 140.946 84.0735 139.343 85.698C133.788 86.6949 123.554 87.3043 117.87 87.235C117.202 86.7017 109.317 80.7648 107.559 78.677Z" fill="#D97757"/>
<path class="bg" d="M108.908 90.7084C109.78 89.5101 116.805 89.8934 120.975 89.9335C122.399 90.3989 126.053 91.9088 126.1 93.4718C122.675 93.7359 111.954 94.9687 109.471 93.1525C108.943 92.3678 108.035 91.9068 108.908 90.7084Z"/>
<path d="M120.977 89.9334C126.013 90.006 130.676 89.9439 135.683 89.6387C134.429 90.5955 133.22 91.4043 132.164 92.4737C130.853 92.6512 127.481 93.4398 126.225 93.4268C124.376 92.4169 122.376 90.7928 120.977 89.9334Z" fill="#D97757"/>
<path class="bg" d="M142.786 82.2324C143.382 84.9384 141.681 85.078 139.342 85.6982L142.786 82.2324Z"/>
</svg>
