<svg width="236" height="150" viewBox="0 0 236 150" fill="none" xmlns="http://www.w3.org/2000/svg">
<style>
  .bg { fill: #F2EFE9; }
  .ink { fill: #222222; }
  @media (prefers-color-scheme: dark) {
    .bg { fill: #1C1A17; }
    .ink { fill: #F2EFE9; }
  }
</style>
<rect class="bg" width="236" height="150" rx="8"/>
<path class="ink" d="M144.421 28.5962C144.923 29.1885 148.01 30.4691 148.914 31.0708C149.969 31.7733 150.997 33.0925 152.164 33.6311C152.619 33.842 153.99 34.181 154.344 34.6273C156.115 36.8552 158.049 39.7497 159.575 42.004C169.643 56.8788 171.951 72.8459 167.86 88.8515C166.043 95.9561 162.074 103.574 156.354 109.755C154.099 112.083 151.131 114.299 148.371 116.322C136.735 124.854 125.4 126.885 108.667 124.884C94.7175 123.215 85.9369 119.272 77.8248 111.386C74.3041 107.964 71.3314 104.612 69.2777 100.653C68.9961 100.109 68.4839 99.3779 68.6204 98.8685L68.5677 99.2197L68.5413 98.8365L69.1571 99.2433C67.8634 95.2611 67.257 93.7649 66.982 89.602C66.3737 86.2894 65.982 83.279 66.385 79.9118C68.837 59.4014 86.0696 34.4079 116.555 26.39C117.77 26.0699 126.14 24.6913 127.43 24.5171C131.933 23.9107 139.686 25.8919 143.219 27.7676C143.921 28.1057 143.944 28.0849 144.421 28.5962Z"/>
<path class="ink" d="M144.421 28.5963C143.359 28.6839 141.586 28.2922 141.229 27.6142L141.505 27.4749L142.901 27.9579L143.219 27.7677C143.921 28.1057 143.943 28.085 144.421 28.5963Z"/>
<path class="bg" d="M70.2683 76.5589C73.8107 58.2283 90.8107 35.1642 119.132 28.5239C121.315 28.088 123.66 27.8187 125.858 27.4542C128.057 27.0898 128.904 26.5305 131.257 26.7254C135.655 27.0908 136.675 27.7857 139.942 29.4524C142.938 30.9816 147.063 31.9241 149.283 34.2697C159.493 43.9609 159.977 58.8112 157.092 70.0673C154.215 81.2999 147.371 93.5975 136.497 102.469C131.266 106.736 122.376 111.125 114.449 112.79L114.514 113.286C113.785 113.668 112.752 113.976 111.814 113.824C107.156 114.659 102.303 114.909 97.5065 114.564C96.5499 114.531 96.3757 114.513 95.4453 114.354L95.3248 114.145C96.063 113.971 96.9924 114.218 98.0649 114.224L98.2711 114.019C87.8568 112.993 78.2532 108.683 73.9001 102.224C73.7174 102.055 73.4161 101.787 73.2909 101.589C67.8681 93.0513 67.8135 83.0278 69.9867 74.0137C70.3041 72.6982 70.4783 71.2698 71.0621 70.0899L71.2325 70.0767C71.4331 71.1897 70.0122 74.8969 69.9877 76.4845L70.2683 76.5589Z"/>
<path class="ink" d="M73.9001 102.224C73.7174 102.055 73.4161 101.787 73.2909 101.589C67.8681 93.0515 67.8135 83.028 69.9867 74.0138C70.3041 72.6984 70.4783 71.27 71.0621 70.0901L71.2325 70.0769C71.4331 71.1899 70.0122 74.8971 69.9877 76.4846L70.2683 76.559C69.3257 82.7238 69.0978 88.9084 71.0611 95.0431C71.4632 96.2973 74.2768 101.61 74.1327 102.156L73.9001 102.224Z"/>
<path class="ink" d="M98.2706 114.019C103.408 114.277 109.438 113.573 114.449 112.79L114.514 113.286C113.785 113.668 112.752 113.976 111.813 113.823C107.156 114.659 102.303 114.909 97.5059 114.564C96.5493 114.531 96.3751 114.513 95.4447 114.354L95.3242 114.145C96.0624 113.971 96.9918 114.218 98.0643 114.224L98.2706 114.019Z"/>
<path class="ink" d="M97.507 114.564C97.2594 114.619 111.775 113.82 111.814 113.823C107.157 114.659 102.304 114.909 97.507 114.564Z"/>
<path d="M93.2615 48.4063C93.4658 47.6615 93.4263 46.8724 93.5873 46.1163C94.0318 44.0174 95.9254 42.5551 98.108 41.1088C100.846 39.2952 113.036 32.7415 116.24 32.9797C116.972 33.0343 117.541 33.2999 118.022 33.6502C118.261 33.8225 118.342 33.8997 118.657 34.0174C121.257 32.2679 121.175 31.6398 125.024 30.863C132.957 29.2613 141.074 32.1097 143.646 37.1954C149.144 39.2104 155.254 47.315 153.819 51.3037C155.202 56.1088 156.112 61.2726 153.254 65.8866C153.704 67.3941 152.497 73.8131 151.135 75.0034C149.91 80.4695 145.853 89.784 139.679 93.6606C139.71 94.6964 135.231 98.9864 134.236 99.9525C131.128 102.976 122.936 107.166 117.641 108.124C116.049 110.639 110.908 111.149 107.262 111.325C100.992 111.627 90.4668 112.022 88.06 107.024C87.6711 106.217 87.5496 105.31 87.2728 104.473C80.6937 106.497 77.7822 100.921 75.9649 97.6804C74.2201 94.5693 74.0976 90.5345 73.56 87.2275C72.8434 82.8292 72.786 79.1455 75.9564 75.1267C73.1504 69.9468 76.9639 63.6088 80.4809 58.9534C82.0807 56.8357 87.6099 47.8536 91.8312 48.073L91.9809 48.2924C89.5647 50.2378 87.9545 51.395 86.4545 53.6992C88.3736 52.5946 90.2916 49.7792 93.2615 48.4063Z" fill="#D97757"/>
<path class="ink" d="M93.2617 48.4063C93.4661 47.6615 93.4265 46.8724 93.5875 46.1163C94.032 44.0174 95.9256 42.5551 98.1082 41.1088C100.846 39.2952 113.036 32.7415 116.24 32.9797C116.972 33.0343 117.541 33.2999 118.023 33.6502C118.261 33.8225 118.342 33.8997 118.657 34.0174C121.257 32.2679 121.175 31.6398 125.024 30.863C132.958 29.2613 141.074 32.1097 143.646 37.1954C149.144 39.2104 155.254 47.315 153.819 51.3037C155.202 56.1088 156.112 61.2726 153.254 65.8866C153.704 67.3941 152.497 73.8131 151.136 75.0033C149.911 80.4695 145.853 89.784 139.679 93.6606C138.879 93.4393 139.122 93.623 138.749 93.2068C139.125 92.1814 142.048 90.2162 142.836 88.6691C145.805 82.8433 151.563 75.4101 147.785 69.3169C143.019 70.1596 136.932 70.5156 132.063 70.9233C128.971 71.2482 125.916 71.7434 122.779 71.8687C121.331 71.9271 120.809 71.7839 120.445 70.8103C121.332 68.2821 144.276 67.7133 148.848 67.4845C149.977 66.4647 150.907 65.6304 151.633 64.3564C154.668 59.0287 151.541 49.2688 148.62 44.0249C148.165 43.2086 146.703 41.7029 145.353 41.4731C145.218 41.3112 143.532 41.4477 143.435 41.5664C138.605 47.4477 134.167 53.5862 128.965 59.3423C127.148 61.3527 123.117 67.7877 120.219 68.8169L119.824 68.7114C118.969 66.9261 122.244 63.7161 123.556 62.0673C128.246 56.1775 133.664 50.5542 138.366 44.6634C139.46 43.2924 140.883 41.5024 142.277 40.2886C141.864 37.4534 141.265 35.9854 137.508 34.2453C132.227 31.7989 123.352 31.6614 120.124 35.9138C119.815 36.3206 119.803 37.7773 119.745 38.266C119.559 44.1671 119.384 50.0786 118.783 55.9703C118.589 57.8743 119.2 66.3602 117.059 67.1738L116.603 66.9318C114.85 64.4252 116.967 50.831 117.126 47.5193C117.258 44.7763 117.538 39.4873 118.102 36.7886C117.689 36.1097 117.355 35.2632 116.259 34.9873C114.782 35.0513 113.048 35.8375 111.698 36.4336C106.345 38.7961 100.292 41.6201 96.2457 44.9468C95.4792 45.5767 94.9745 47.1483 94.7278 47.9223C99.2429 51.6587 103.166 56.2142 106.942 60.3103C108.302 61.7858 116.383 68.428 113.637 69.7105C111.334 69.509 102.29 58.7641 100.619 56.8018C98.7617 54.6229 94.3634 50.6097 93.2617 48.4063Z"/>
<path d="M153.253 65.8865C153.703 67.394 152.496 73.813 151.135 75.0033C151.23 72.5437 151.192 71.2 150.051 68.8789C151.655 68.0852 152.319 67.0484 153.253 65.8865Z" fill="#D97757"/>
<path d="M143.645 37.1953C149.143 39.2104 155.253 47.3149 153.818 51.3036C152.815 48.0805 151.751 43.3987 148.373 40.8413C146.921 39.7415 145.815 39.5955 143.781 39.5343C143.781 38.7132 143.722 38.0079 143.645 37.1953Z" fill="#D97757"/>
<path class="ink" d="M75.9564 75.1268C73.1504 69.9469 76.9639 63.6089 80.4809 58.9535C82.0807 56.8358 87.6099 47.8536 91.8312 48.073L91.9809 48.2924C89.5647 50.2378 87.9545 51.3951 86.4545 53.6992C83.6024 58.1493 74.8321 68.8857 77.544 73.1842C77.6617 73.3678 77.7888 73.5495 77.9253 73.7275C84.4762 72.7567 92.0129 72.6776 98.7286 72.493C101.543 72.4158 110.748 70.6616 111.633 73.0279C110.421 75.3179 93.4348 75.0034 89.898 75.0722C85.9884 75.1701 82.0798 75.2897 78.1739 75.4309C76.8396 77.1136 74.7361 80.0985 75.1475 82.7322C76.075 88.6663 75.6231 98.4046 83.398 102.569C84.6033 103.214 86.5685 102.337 87.769 101.84C88.5995 100.359 90.8576 98.075 92.0901 96.6918C95.3444 93.0439 98.9423 89.5439 102.365 85.9686C105.017 83.1983 107.117 80.1757 110.01 77.5006C110.676 76.8848 111.869 75.6673 113.099 75.9168C113.459 76.4375 113.48 76.9639 113.073 77.4761C106.197 86.14 97.3444 94.6183 89.0628 102.729C89.0986 104.135 88.9442 106.513 90.8105 107.508C96.3086 110.439 105.064 109.235 111.543 108.719C113.762 108.542 115.085 106.59 117.641 108.124C116.049 110.639 110.908 111.149 107.262 111.326C100.992 111.627 90.4668 112.022 88.06 107.024C87.6711 106.217 87.5496 105.31 87.2728 104.473C80.6937 106.497 77.7822 100.922 75.9649 97.6805C74.2201 94.5694 74.0976 90.5345 73.56 87.2275C72.8434 82.8292 72.786 79.1456 75.9564 75.1268Z"/>
<path class="ink" d="M116.252 75.8958C118.02 76.3477 118.002 80.4993 118.165 81.7093C118.795 86.3967 118.926 91.3139 119.014 96.0069C119.051 97.9853 119.992 105.537 118.989 106.751C117.496 106.052 117.095 101.497 117.175 100.218C117.468 95.5031 114.058 79.2385 116.252 75.8958Z"/>
<path class="ink" d="M119.781 74.2275C123.378 74.7991 135.225 89.3189 137.92 92.1447C138.458 92.7097 138.436 93.2615 138.07 93.8641C135.333 93.1278 128.234 84.85 126.103 82.8405C124.002 80.8584 121.432 78.575 119.803 76.3895C119.242 75.6371 119.346 74.9903 119.781 74.2275Z"/>
<path d="M161.029 53.5635C160.702 51.5757 160.31 49.5926 159.852 47.6152C161.274 49.9401 163.356 53.8422 163.706 56.2791C163.972 56.668 164.345 58.0126 164.49 58.5456C168.868 74.6228 167.112 93.4562 154.21 107.756C149.33 112.073 141.541 118.407 134.097 120.62C117.811 125.461 95.4121 121.714 84.0156 113.144C90.107 115.708 94.72 116.923 101.82 116.655C104.199 116.565 105.974 116.851 108.689 116.5C111.559 116.128 115.091 115.823 117.786 115.092C126.555 112.716 135.191 107.66 140.674 102.636C147.74 96.1634 151.748 89.7745 155.352 82.2518C157.814 77.1096 159.975 72.5607 160.631 67.088C160.732 66.2311 161.171 63.7085 161.001 62.9863C160.737 64.1633 160.397 65.0512 160.323 66.2593C160.223 67.8761 159.926 69.5315 159.353 71.1049C159.322 69.5484 159.898 67.8573 160.181 66.2819C160.973 61.861 161.123 57.9957 161.029 53.5635Z" fill="#D97757"/>
</svg>
