<svg width="236" height="151" viewBox="0 0 236 151" fill="none" xmlns="http://www.w3.org/2000/svg">
<style>
  .bg { fill: #F2EFE9; }
  .ink-stroked { fill: #222222; stroke: #222222; }
  @media (prefers-color-scheme: dark) {
    .bg { fill: #1C1A17; }
    .ink-stroked { fill: #F2EFE9; stroke: #F2EFE9; }
  }
</style>
<rect class="bg" width="236" height="150" rx="8"/>
<path d="M110.087 16.2451C114 16.245 117.075 18.8589 118.472 20.5828C119.271 21.1635 124.9 23.5601 126.201 24.1397C132.122 23.9971 135.013 24.8032 135.868 28.5493C138.39 29.6659 144.463 32.5788 146.424 33.9736C146.483 36.5765 146.992 54.89 145.989 55.9564C148.527 58.7881 151.241 62.8802 152.675 65.9631C154.09 69.0057 153.388 70.0067 156.407 72.846C157.99 74.3336 158.603 79.217 158.603 81.0515C162.904 85.3407 162.313 89.0228 161.886 93.8208C161.944 95.457 162.326 97.1337 162.224 98.7686C161.309 113.599 139.866 123.729 133.839 137.511C132.62 140.299 131.026 149.084 127.02 150.262C126.091 146.81 126.014 146.688 127.385 143.231C129.263 138.498 130.375 133.48 134.063 129.055C142.256 119.228 157.582 109.831 159.573 98.4425C158.364 100.454 154.946 107.872 151.754 108.418C149.531 107.289 152.82 104.232 153.563 102.939C157.531 96.0272 160.75 91.3475 158.242 84.0075C157.24 89.6369 156.08 94.7107 152.428 100C151.621 101.17 150.477 103.915 147.824 103.972C147.229 103.428 147.139 103.381 147.474 102.538C148.45 100.083 150.706 97.3934 151.84 95.0316C155.002 88.4458 157.084 81.4881 154.731 74.7443C153.655 82.1258 150.353 90.9939 143.634 97.366C143.516 97.4795 143.081 97.5395 142.864 97.5774C140.638 96.7827 142.135 94.3962 142.829 93.2218C148.157 84.1944 155.247 75.7072 148.38 66.0414C147.272 64.4816 146.549 62.3428 145.027 60.8291C143.797 62.0393 139.023 64.605 137.079 65.7119C142.559 76.4619 143.346 76.473 134.435 86.3854C129.397 91.9913 127.347 97.2994 115.95 100.286C93.4534 106.972 96.5105 86.4268 95.973 78.9702C95.4876 76.8597 93.6386 66.0826 86.7909 70.9625C86.4725 71.1889 86.2586 78.0577 86.2834 79.0237C86.5182 88.1546 81.3824 97.0776 83.2927 106.09C84.7997 113.201 89.4658 119.213 90.5658 126.274C90.8959 128.82 90.2278 141.414 87.81 142.921C86.4804 142.749 85.9728 141.258 86.1098 140.584C86.8849 136.778 88.0984 131.999 87.6077 128.174C86.4386 119.078 79.3208 111.012 79.7488 101.616C80.2146 91.4081 83.5354 81.3888 83.8211 71.1246C83.8512 69.8555 84.638 68.6817 86.1868 67.8346C83.3866 66.0561 78.3383 63.5612 75.1297 61.8492C74.917 59.0265 74.7422 54.5669 74.69 51.7286C74.6195 47.9626 72.8684 37.4001 74.3533 34.3725C77.6519 32.7903 80.897 31.1693 84.0899 29.5106C84.0965 29.371 84.1095 29.2315 84.1278 29.0923C84.1565 28.8736 84.3538 28.0194 85.4782 26.8502C86.6027 25.6811 91.8057 24.4357 92.8779 24.9124C95.1313 24.1856 99.3329 21.9306 101.458 20.8368C102.71 17.3965 106.174 16.2452 110.087 16.2451Z" fill="#D97757"/>
<path class="ink-stroked" stroke-width="0.35" d="M136.688 50.8101C137.636 50.1893 138.634 50.1181 139.606 50.3784C140.573 50.637 141.514 51.2229 142.369 51.9155C143.649 52.9518 144.77 54.2588 145.512 55.1333L146.119 55.8374L146.12 55.8384C148.669 58.682 151.392 62.7886 152.834 65.8882C153.192 66.6578 153.416 67.2983 153.598 67.8687C153.78 68.4424 153.916 68.9303 154.103 69.4165C154.47 70.3727 155.033 71.3119 156.527 72.7173C156.95 73.1148 157.297 73.7264 157.581 74.4312C157.866 75.1391 158.094 75.9568 158.271 76.7808C158.615 78.3859 158.769 80.0337 158.776 80.978C160.915 83.1272 161.85 85.1368 162.19 87.2163C162.531 89.2954 162.274 91.4376 162.062 93.8198C162.09 94.6274 162.199 95.4433 162.289 96.2749C162.379 97.1043 162.451 97.9454 162.399 98.7788C161.937 106.27 156.293 112.555 150.071 118.657C146.952 121.716 143.686 124.731 140.817 127.846C137.95 130.96 135.495 134.161 134 137.581C133.7 138.266 133.375 139.326 132.99 140.565C132.607 141.799 132.166 143.201 131.638 144.553C131.11 145.905 130.491 147.216 129.747 148.265C129.004 149.313 128.124 150.119 127.069 150.429L126.897 150.48L126.852 150.306C126.39 148.592 126.128 147.667 126.165 146.74C126.203 145.81 126.54 144.886 127.223 143.165C129.088 138.463 130.216 133.395 133.929 128.942C135.984 126.476 138.486 124.04 141.106 121.598C143.73 119.154 146.471 116.707 149.021 114.208C153.782 109.544 157.832 104.74 159.155 99.5435C158.945 99.9301 158.707 100.374 158.443 100.856C157.902 101.844 157.26 102.981 156.555 104.074C155.85 105.165 155.077 106.218 154.277 107.034C153.481 107.845 152.637 108.444 151.784 108.589L151.727 108.599L151.675 108.573C151.375 108.42 151.156 108.23 151.015 108.003C150.873 107.776 150.815 107.524 150.819 107.263C150.828 106.75 151.074 106.188 151.396 105.649C151.721 105.105 152.139 104.558 152.517 104.073C152.899 103.581 153.233 103.161 153.411 102.851C157.267 96.1339 160.358 91.6002 158.289 84.7251C157.311 90.0893 156.096 94.9947 152.571 100.099C152.373 100.387 152.157 100.767 151.89 101.198C151.626 101.623 151.319 102.086 150.951 102.516C150.215 103.377 149.223 104.116 147.828 104.146L147.758 104.148L147.706 104.1C147.561 103.967 147.436 103.855 147.343 103.754C147.248 103.652 147.171 103.546 147.133 103.417C147.094 103.286 147.101 103.151 147.134 103.002C147.167 102.856 147.227 102.683 147.312 102.472C147.807 101.226 148.625 99.9264 149.451 98.6538C150.282 97.3742 151.122 96.1226 151.683 94.9546C154.731 88.6055 156.751 81.9532 154.791 75.4946C153.605 82.7516 150.29 91.2919 143.755 97.4907C143.698 97.5451 143.621 97.5809 143.555 97.605C143.484 97.6307 143.404 97.6517 143.325 97.6694C143.169 97.7046 142.997 97.7306 142.895 97.7485L142.85 97.7563L142.806 97.7407C142.216 97.53 141.849 97.2045 141.663 96.7983C141.48 96.3973 141.485 95.9449 141.581 95.5034C141.771 94.627 142.337 93.7096 142.679 93.1313L143.185 92.2837C145.734 88.0545 148.538 83.9709 150.013 79.811C151.578 75.395 151.631 70.9184 148.237 66.1411C147.676 65.3507 147.21 64.4098 146.706 63.5015C146.225 62.6346 145.704 61.7882 145.02 61.0737C144.692 61.3668 144.206 61.7172 143.636 62.0923C142.981 62.5227 142.205 62.9933 141.409 63.4595C139.896 64.3456 138.297 65.2233 137.312 65.7808C138.643 68.3886 139.697 70.3702 140.393 72.0142C141.102 73.6917 141.448 75.0425 141.328 76.3774C141.208 77.7134 140.623 79.0097 139.521 80.5845C138.421 82.1576 136.792 84.0249 134.565 86.5015C133.31 87.8984 132.242 89.2758 131.16 90.6118C130.08 91.9457 128.99 93.2358 127.697 94.4448C125.107 96.8677 121.718 98.9546 115.994 100.455L115.993 100.454C110.354 102.129 106.286 102.108 103.352 100.987C100.409 99.8627 98.635 97.6444 97.5645 94.9956C96.496 92.3517 96.1242 89.2699 95.9834 86.394C95.913 84.955 95.9005 83.5631 95.8887 82.3013C95.8769 81.0423 95.8648 79.916 95.7988 78.9927C95.5509 77.9082 94.9723 74.7398 93.6172 72.4321C92.937 71.2739 92.0774 70.3621 90.9941 70.0239C89.9244 69.6901 88.5884 69.9015 86.9141 71.0884C86.9104 71.0973 86.906 71.1108 86.9004 71.1294C86.8844 71.1822 86.8673 71.2599 86.8496 71.3628C86.8145 71.5675 86.7801 71.8528 86.748 72.1968C86.684 72.8838 86.6281 73.7909 86.583 74.7231C86.4928 76.5897 86.4468 78.5423 86.459 79.0181C86.5771 83.6111 85.3442 88.1524 84.3311 92.6392C83.3154 97.137 82.5176 101.587 83.4639 106.052C84.2126 109.585 85.7466 112.848 87.2412 116.127C88.6395 119.195 90.0034 122.278 90.625 125.583L90.7393 126.247V126.25C90.9072 127.545 90.8209 131.348 90.3926 135.006C90.1781 136.838 89.8765 138.644 89.4756 140.088C89.2752 140.81 89.049 141.448 88.793 141.956C88.5389 142.459 88.2452 142.855 87.9023 143.069L87.8496 143.102L87.7881 143.094C87.0556 142.999 86.5543 142.539 86.2588 142.027C85.9672 141.521 85.8594 140.937 85.9385 140.548C86.3273 138.639 86.823 136.502 87.1611 134.358C87.4991 132.215 87.6766 130.083 87.4346 128.196C86.854 123.679 84.7962 119.416 82.9189 115.076C81.047 110.748 79.3583 106.349 79.5742 101.607C79.8078 96.4891 80.757 91.4199 81.6807 86.3589C82.6051 81.2936 83.504 76.2354 83.6465 71.1187C83.6786 69.7703 84.5164 68.5478 86.1025 67.6802C87.8252 66.5882 89.4039 66.2434 90.8203 66.4048C92.237 66.5663 93.4724 67.2317 94.5117 68.1245C96.5551 69.88 97.8681 72.5394 98.3584 74.1138C99.4723 74.7594 101.981 76.1236 104.517 77.397C105.806 78.0445 107.1 78.6674 108.22 79.1606C109.32 79.6454 110.239 79.9977 110.817 80.1294C111.707 79.9497 112.733 79.4707 113.423 79.0649C118.611 76.0149 123.761 72.9523 129.162 70.0298C130.535 69.2873 132.17 68.4626 133.367 67.6489C132.275 65.2947 131.569 62.141 131.88 59.064C132.197 55.922 133.576 52.8507 136.688 50.8101Z"/>
<path class="bg" d="M132.785 67.1497C133.796 69.7959 136.907 72.0483 137.365 74.746C137.776 77.2735 134.798 79.1662 133.085 81.3881C128.835 86.9012 127.261 91.2175 119.171 95.23C106.451 101.538 98.717 97.2636 99.9775 87.9053C100.227 86.0479 100.385 83.5642 100.27 81.6789C100.199 78.8625 99.0657 76.19 98.4785 73.4594C100.654 74.7639 108.434 79.2531 110.815 79.7839C111.741 79.5992 112.803 79.0856 113.51 78.6576C118.699 75.5171 123.845 72.3664 129.243 69.3598C130.654 68.5744 131.568 68.0226 132.785 67.1497Z"/>
<path class="bg" d="M137.752 65.9373C136.772 63.5476 133.938 55.5442 138.894 54.4407C140.491 55.1026 144.103 60.4373 145.303 61.7801C144.074 62.9903 139.696 64.8304 137.752 65.9373Z"/>
<path class="bg" d="M117.336 22.1951C118.989 22.7975 121.901 24.1781 123.556 24.9141C118.577 27.3455 119.988 32.1491 120.296 34.9929C121.347 36.9105 128.82 38.9759 133.732 36.4738C136.322 35.1551 135.822 32.0572 135.77 30.0728C138.324 31.3926 141.176 32.687 143.842 33.9397C132.609 39.5662 121.279 46.7119 110.361 52.797C104.919 49.6657 95.7148 45.5094 89.6069 42.4231C85.3009 40.2277 80.5906 37.9952 76.5273 35.6701C79.3249 34.3381 81.7271 33.0609 84.3889 31.639C84.4189 33.6784 83.9818 37.087 87.5701 37.9457C93.0581 39.2588 97.4032 38.305 99.7545 35.2727C99.6005 34.1934 99.4557 30.2939 99.0734 29.6307C96.3111 32.2481 92.0247 34.2058 86.7572 31.3222C84.4098 30.0371 86.1843 28.5944 88.1977 27.5899C93.1691 25.1104 97.7528 27.9123 99.0734 29.6307C99.3388 29.6826 99.6461 27.6934 96.3398 25.5687L102.201 22.3937C102.174 24.0786 102.187 25.1162 102.482 26.7806C104.246 28.4953 107.585 29.0625 110.186 29.0625C112.787 29.0625 117.464 27.292 117.336 22.1951Z"/>
<path d="M108.341 33.981C116.565 33.1777 118.008 36.5986 117.978 41.0648C117.955 44.4589 118.154 46.4517 111.675 47.375C109.641 47.5645 108.507 47.5015 106.59 46.9938C104.689 46.4854 103.224 45.5262 102.544 44.3448C101.549 42.6615 101.504 38.4635 102.889 36.8241C104.182 35.2943 105.71 34.5503 108.341 33.981Z" fill="#D97757"/>
<path class="bg" d="M108.953 35.3509C116.615 34.3156 120.582 39.9226 111.265 41.236C102.974 41.5322 100.886 37.0688 108.953 35.3509Z"/>
<path class="bg" d="M127.36 25.2136C130.833 24.764 134.373 26.4047 134.373 28.588C134.373 30.7714 131.726 31.9138 129.149 31.9138C126.572 31.9138 121.642 30.3344 121.471 28.7535C121.3 27.1726 123.887 25.6633 127.36 25.2136Z"/>
<path class="bg" d="M108.183 17.7727C111.125 17.1922 114.127 17.9241 115.157 19.0521C116.187 20.1802 116.412 21.1237 115.647 21.9666C114.883 22.8095 113.177 23.4848 111.537 23.4848C104.368 23.4848 99.2277 19.5402 108.183 17.7727Z"/>
</svg>
