<svg width="236" height="150" viewBox="0 0 236 150" fill="none" xmlns="http://www.w3.org/2000/svg">
<style>
  .bg { fill: #F2EFE9; }
  .ink { fill: #222222; }
  @media (prefers-color-scheme: dark) {
    .bg { fill: #1C1A17; }
    .ink { fill: #F2EFE9; }
  }
</style>
<rect class="bg" width="236" height="150" rx="8"/>
<path d="M130.497 29.8511C137.966 30.8255 154.122 35.2619 161.869 37.2908C164.001 37.8391 167.316 38.8009 169.39 39.1711C176.002 40.854 182.628 42.4868 189.265 44.0694C208.065 48.5228 201.608 47.0619 213 62.4847C211.498 68.758 210.055 75.235 207.87 81.3028C203.44 83.9082 196.659 87.5806 192.039 89.8055C186.766 88.8155 181.113 87.0878 175.839 85.8821C161.794 82.6715 147.555 78.5663 133.524 75.5532C133.609 79.8589 135.019 91.919 128.46 91.4088C126.742 91.2754 124.675 89.8387 123.226 88.9001C121.961 96.1554 118.664 106.492 110.641 97.2027C104.114 104.873 100.482 99.6224 98.8678 92.1746C90.1284 100.395 81.4928 106.408 69.162 107.974C63.1152 108.741 60.3818 108.594 54.6447 110.795C50.5767 112.355 40.4462 120.072 37.4344 120.149C36.695 119.579 36.934 119.81 36.541 118.87C37.6322 114.273 56.7246 105.308 62.3525 105.181C71.5709 104.974 79.4738 102.519 87.2008 97.4176C94.6158 92.521 99.7751 84.6579 107.285 79.8137C113.088 75.7412 128.496 69.5605 130.735 61.8684C131.974 57.6155 124.652 57.8706 121.415 58.8463C111.262 61.9073 101.995 68.4702 91.178 69.6903C88.9728 69.9361 81.436 71.828 80.36 69.2763L80.6384 68.6886C82.8736 67.2949 90.6163 66.4619 93.7825 65.9579C95.4242 61.7498 96.2253 58.072 97.7059 53.905C98.2292 52.4325 99.6117 51.3108 101.094 50.9649C106.091 49.9439 113.2 47.4576 117.874 50.4618C119.474 51.4908 122.502 54.9989 124.062 54.3683C124.934 50.8149 125.885 47.2813 126.915 43.77C126.934 43.364 127.539 40.7873 127.662 40.2287C128.451 36.7071 129.148 33.1967 130.497 29.8511ZM124.062 54.3683C122.502 54.9989 119.474 51.4908 117.874 50.4618C113.2 47.4576 106.091 49.9439 101.094 50.9649C99.6117 51.3108 98.2292 52.4325 97.7059 53.905C96.2253 58.072 95.4242 61.7498 93.7825 65.9579C90.6163 66.4619 82.8736 67.2949 80.6384 68.6886L80.36 69.2763C81.436 71.828 88.9728 69.9361 91.178 69.6903C101.995 68.4702 111.262 61.9073 121.415 58.8463C124.652 57.8706 131.974 57.6155 130.735 61.8684C128.496 69.5605 113.088 75.7412 107.285 79.8137C99.7751 84.6579 94.6158 92.521 87.2008 97.4176C79.4738 102.519 71.5709 104.974 62.3525 105.181C56.7246 105.308 37.6322 114.273 36.541 118.87C36.934 119.81 36.695 119.579 37.4344 120.149C40.4462 120.072 50.5767 112.355 54.6447 110.795C60.3818 108.594 63.1152 108.741 69.162 107.974C81.4928 106.408 90.1284 100.395 98.8678 92.1746C100.482 99.6224 104.114 104.873 110.641 97.2027C118.664 106.492 121.961 96.1554 123.226 88.9001C124.675 89.8387 126.742 91.2754 128.46 91.4088C135.019 91.919 133.609 79.8589 133.524 75.5532C131.98 75.0707 131.278 74.8953 129.685 74.6482C128.225 74.3591 126.522 73.9016 125.054 73.5485C129.107 70.3407 130.931 68.856 133.672 64.4344C136.08 66.675 136.943 67.003 140.218 67.2085C152.698 62.5169 139.967 51.2271 140.716 47.0718C140.828 46.4201 141.2 45.8418 141.746 45.4699C144.052 43.9074 146.096 47.8483 147.952 46.5526C148.107 46.0227 148.253 45.9063 148.072 45.3759C146.549 40.909 139.986 41.1203 138.183 44.9162C135.348 50.8856 144.183 56.7646 142.104 62.7859C141.941 63.2572 141.147 63.6923 140.69 63.7832C136.34 64.2097 136.156 62.9949 135.359 59.5356C132.839 58.1445 131.936 55.7755 129.293 54.8597C127.787 54.3383 125.648 55.0123 124.062 54.3683Z" fill="#D97757"/>
<path class="ink" d="M135.359 59.5354C136.182 63.0647 136.34 64.2095 140.69 63.783C141.147 63.6921 141.941 63.2571 142.104 62.7858C144.183 56.7644 135.348 50.8854 138.183 44.916C139.986 41.1201 146.549 40.9089 148.072 45.3757C148.253 45.9061 148.107 46.0225 147.952 46.5524C146.096 47.8482 144.052 43.9072 141.746 45.4697C141.2 45.8416 140.828 46.4199 140.716 47.0716C139.967 51.227 152.698 62.5168 140.218 67.2083C136.943 67.0029 136.08 66.6748 133.672 64.4342C130.931 68.8559 129.107 70.3405 125.054 73.5483L121.913 75.6175C122.721 80.967 122.925 86.7175 129.225 87.6601C130.465 86.6844 130.398 75.5432 129.685 74.648C131.278 74.8951 131.98 75.0705 133.524 75.553C133.609 79.8588 135.019 91.9189 128.46 91.4086C126.742 91.2752 124.675 89.8385 123.226 88.8999C121.961 96.1552 118.664 106.492 110.641 97.2026C104.114 104.873 100.482 99.6222 98.8678 92.1744C90.1284 100.395 81.4928 106.408 69.162 107.974C63.1152 108.741 60.3818 108.594 54.6447 110.795C50.5767 112.355 40.4462 120.072 37.4344 120.149C36.695 119.579 36.934 119.809 36.541 118.87C37.6322 114.273 56.7246 105.308 62.3525 105.181C71.5709 104.973 79.4738 102.519 87.2008 97.4174C94.6158 92.5209 99.7751 84.6577 107.285 79.8136C113.088 75.741 128.496 69.5604 130.735 61.8682C131.974 57.6153 124.652 57.8704 121.415 58.8461C111.262 61.9072 101.995 68.47 91.178 69.6902C88.9728 69.9359 81.436 71.8278 80.36 69.2761L80.6384 68.6885C82.8736 67.2947 90.6163 66.4617 93.7825 65.9578C95.4242 61.7496 96.2253 58.0718 97.7059 53.9048C98.2292 52.4323 99.6117 51.3107 101.094 50.9647C106.091 49.9437 113.2 47.4574 117.874 50.4616C119.474 51.4906 122.502 54.9987 124.062 54.3681C125.648 55.0122 127.787 54.3381 129.293 54.8595C131.936 55.7753 134.535 56.0061 135.359 59.5354ZM100.902 54.5077C100.248 58.425 99.4815 61.3293 97.6191 64.8974C99.6243 64.1366 102.167 63.2432 104.04 62.3019C109.169 59.8545 113.681 57.7223 119.067 55.82C117.282 54.3309 116.39 53.6112 114.403 52.3902C113.694 52.4506 111.953 52.5531 111.337 52.6744C107.843 53.1954 104.364 53.8068 100.902 54.5077ZM112.64 80.6841C112.236 85.7046 111.076 92.1601 114.537 96.1995C114.868 96.5822 115.21 96.9555 115.562 97.3189C120.476 96.5831 121.259 80.2719 118.183 77.4767L112.64 80.6841ZM102.234 88.8341C102.448 92.217 102.465 93.4885 103.847 96.6829C104.98 97.3409 104.52 97.2697 105.643 97.1538C108.437 95.3921 109.705 86.0497 108.733 83.1682C106.322 85.0373 104.34 86.6096 102.234 88.8341Z"/>
<path d="M140.692 63.783C136.342 64.2095 136.158 62.9948 135.361 59.5354L133.674 64.4342C136.082 66.6748 136.945 67.0029 140.221 67.2083C152.7 62.5168 139.969 51.227 140.718 47.0716C140.83 46.4199 141.202 45.8416 141.748 45.4697C144.055 43.9072 146.099 47.8482 147.954 46.5524C148.11 46.0225 148.255 45.9061 148.074 45.3757C146.551 40.9089 139.988 41.1201 138.185 44.916C135.35 50.8854 144.185 56.7644 142.106 62.7858C141.943 63.2571 141.149 63.6921 140.692 63.783Z" fill="#F2EFE9"/>
<path d="M157.934 45.8196C158.812 45.9266 159.648 45.9539 160.124 46.8217C162.105 50.4364 161.241 70.0763 158.527 71.727L157.821 71.5014C156.465 69.5866 157.437 64.4072 157.741 62.0596L153.512 61.0938C150.639 60.6869 150.409 69.7397 147.139 68.7273C145.022 65.2764 155.362 48.9567 157.934 45.8196Z" fill="#F2EFE9"/>
<path d="M157.733 50.6667C158.593 51.7378 158.12 57.3975 157.662 58.7102C156.934 59.0875 155.882 58.7675 154.996 58.6216C153.209 56.9781 156.69 52.3429 157.733 50.6667Z" fill="#D97757"/>
<path d="M182.248 52.8215C184.584 52.8712 191.885 53.5045 192.024 56.4304C190.364 57.7337 186.099 56.2469 184.217 55.7156C183.894 58.1961 183.316 60.7661 182.808 63.2265C184.78 63.5442 186.903 63.6011 187.667 65.6873L187.349 66.2964C185.653 67.2842 184.056 66.5793 182.167 66.0901L180.741 72.3424C180.519 73.2953 180.468 72.9448 180.775 73.801C183.124 75.1948 187.615 74.5561 188.712 76.9802C187.789 79.4097 179.289 76.6696 177.484 75.8348C177.654 70.0221 180.569 58.6007 182.248 52.8215Z" fill="#F2EFE9"/>
<path d="M169 49.0115C169.871 49.212 170.118 49.2156 170.716 49.8587C171.355 52.8558 167.622 66.8002 166.734 70.7093C169.12 71.173 172.698 71.5974 174.154 73.4982C174.41 74.6494 174.336 74.3093 173.786 75.5683C170.236 74.9041 166.853 74.1768 163.646 72.5019C163.959 67.2925 167.373 54.2164 169 49.0115Z" fill="#F2EFE9"/>
<path d="M202.916 61.4697C203.547 61.9558 203.561 61.9025 203.751 62.9199C204.057 64.554 205.362 64.4009 205.624 65.6698C204.884 65.959 204.16 66.2065 203.41 66.4643C201.307 68.8651 205.058 69.6027 205.208 71.927C204.435 73.6292 201.531 74.9182 199.436 76.5246C199.484 72.4543 196.934 74.3149 196.762 71.1979C197.673 70.4424 199.226 72.252 200.356 70.9969C200.316 69.7755 198.839 67.9109 198.285 66.2213C198.708 63.5188 201.515 64.0536 202.916 61.4697Z" fill="#F2EFE9"/>
<path class="ink" d="M126.914 43.7702C123.812 42.1325 120.161 38.572 116.395 37.4481C111.573 36.1233 105.627 37.5873 100.661 37.9982C94.167 38.5357 82.7358 37.6656 77.9945 42.5743C64.2449 56.8096 52.6875 73.9793 34.6881 83.3884C32.317 84.6282 26.1955 88.1417 23.6713 87.3137C22.9573 86.5913 23.1575 86.9605 23 85.8375C25.1795 83.7133 31.4107 80.8528 34.385 79.2948C50.4652 70.8726 60.7533 55.5394 72.8675 42.6043C74.6484 40.8256 77.2887 37.996 79.6649 37.1124C87.8941 34.0532 97.8291 35.0728 106.445 33.7954C116.444 32.313 120.129 34.0255 127.662 40.2289C127.539 40.7875 126.933 43.3643 126.914 43.7702Z"/>
</svg>
