<svg width="25" height="25" viewBox="0 0 25 25" fill="none" xmlns="http://www.w3.org/2000/svg">
<path d="M13.5091 24.3065C19.5699 24.3065 24.483 19.3933 24.483 13.3326C24.483 7.27185 19.5699 2.35864 13.5091 2.35864C7.44837 2.35864 2.53516 7.27185 2.53516 13.3326C2.53516 19.3933 7.44837 24.3065 13.5091 24.3065Z" fill="black"/>
<path d="M11.9873 23.1944C18.1774 23.1944 23.1954 18.1764 23.1954 11.9864C23.1954 5.79633 18.1774 0.77832 11.9873 0.77832C5.79731 0.77832 0.779297 5.79633 0.779297 11.9864C0.779297 18.1764 5.79731 23.1944 11.9873 23.1944Z" fill="#FF90E8" stroke="black" stroke-width="1.55665"/>
<path d="M11.0352 17.5173C7.82059 17.5173 5.92969 14.9389 5.92969 11.7317C5.92969 8.39876 8.00969 5.6947 11.9806 5.6947C16.0777 5.6947 17.4643 8.4617 17.5273 10.0339H14.5649C14.5019 9.15343 13.7455 7.83281 11.9176 7.83281C9.96364 7.83281 8.70302 9.53076 8.70302 11.606C8.70302 13.6813 9.96364 15.3791 11.9176 15.3791C13.6825 15.3791 14.4388 13.9957 14.754 12.6122H11.9176V11.4802H17.8693V17.2657H15.2583V13.6183C15.0692 14.9389 14.2497 17.5173 11.0352 17.5173Z" fill="black"/>
</svg>
