<svg width="236" height="150" viewBox="0 0 236 150" fill="none" xmlns="http://www.w3.org/2000/svg">
<style>
  .bg { fill: #F2EFE9; }
  @media (prefers-color-scheme: dark) {
    .bg { fill: #1C1A17; }
  }
</style>
<rect class="bg" width="236" height="150" rx="8"/>
<path d="M90 36.5H146C151.799 36.5 156.5 41.201 156.5 47V103C156.5 108.799 151.799 113.5 146 113.5H90C84.201 113.5 79.5 108.799 79.5 103V47C79.5 41.201 84.201 36.5 90 36.5Z" fill="#D97757"/>
<path d="M90 36.5H146C151.799 36.5 156.5 41.201 156.5 47V103C156.5 108.799 151.799 113.5 146 113.5H90C84.201 113.5 79.5 108.799 79.5 103V47C79.5 41.201 84.201 36.5 90 36.5Z" stroke="#D97757" stroke-width="3"/>
<path class="bg" d="M134.474 54.5244C136.683 54.5245 138.474 56.3154 138.474 58.5244V91.4746C138.474 93.6837 136.683 95.4746 134.474 95.4746H101.523C99.3144 95.4745 97.5235 93.6837 97.5234 91.4746V58.5244C97.5235 56.3154 99.3144 54.5245 101.523 54.5244H134.474ZM103.643 77.5586C103.09 77.5586 102.643 78.0064 102.643 78.5586V89.3555C102.643 89.9078 103.09 90.3555 103.643 90.3555H114.439C114.992 90.3553 115.439 89.9077 115.439 89.3555V78.5586C115.439 78.0065 114.992 77.5587 114.439 77.5586H103.643ZM103.643 59.6436C103.09 59.6436 102.643 60.0913 102.643 60.6436V71.4404C102.643 71.9926 103.09 72.4404 103.643 72.4404H114.439C114.992 72.4403 115.439 71.9925 115.439 71.4404V60.6436C115.439 60.0914 114.992 59.6437 114.439 59.6436H103.643ZM121.558 59.6436C121.005 59.6437 120.558 60.0914 120.558 60.6436V71.4404C120.558 71.9925 121.006 72.4403 121.558 72.4404H132.354C132.907 72.4404 133.354 71.9926 133.354 71.4404V60.6436C133.354 60.0913 132.907 59.6436 132.354 59.6436H121.558Z"/>
</svg>
