<svg width="236" height="150" viewBox="0 0 236 150" fill="none" xmlns="http://www.w3.org/2000/svg">
<style>
  .bg { fill: #F2EFE9; }
  @media (prefers-color-scheme: dark) {
    .bg { fill: #1C1A17; }
  }
</style>
<rect class="bg" width="236" height="150" rx="8"/>
<g clip-path="url(#clip0_2876_6004)">
<path d="M117.735 71.3307C115.733 71.3307 114.103 72.9645 114.103 74.9866V117.357C114.103 119.366 115.733 121.013 117.735 121.013C119.736 121.013 121.367 119.38 121.367 117.357V74.9732C121.367 72.9645 119.736 71.3307 117.735 71.3307Z" fill="#D97757"/>
<path d="M105.382 101.18C103.38 101.18 101.75 102.801 101.75 104.769V111.974C101.75 113.956 103.38 115.563 105.382 115.563C107.383 115.563 109.013 113.956 109.013 111.974V104.769C109.013 102.787 107.383 101.18 105.382 101.18Z" fill="#D97757"/>
<path d="M142.972 95.2079C140.97 95.2079 139.34 96.8283 139.34 98.8236V104.354C139.34 105.318 139.711 106.229 140.4 106.912C141.089 107.595 142.004 107.97 142.972 107.97C144.973 107.97 146.603 106.35 146.603 104.354V98.8236C146.617 96.8283 144.986 95.2079 142.972 95.2079Z" fill="#D97757"/>
<path d="M130.618 83.2626C128.617 83.2626 126.987 84.8964 126.987 86.9185V111.921C126.987 113.929 128.617 115.576 130.618 115.576C131.586 115.576 132.5 115.201 133.19 114.505C133.879 113.809 134.25 112.898 134.25 111.921V86.9185C134.25 85.9409 133.879 85.0303 133.19 84.3339C132.514 83.6509 131.599 83.2626 130.618 83.2626Z" fill="#D97757"/>
<path d="M127.119 75.1473C127.119 77.156 128.723 78.7898 130.685 78.7898C132.646 78.7898 134.25 77.1561 134.25 75.1607V69.014C134.25 66.8847 132.726 64.193 130.91 63.1351L121.314 57.4972C120.412 56.9616 119.193 56.7071 117.987 56.7071C116.767 56.7071 115.561 56.975 114.66 57.4972L105.064 63.1351C103.261 64.193 101.723 66.8981 101.723 69.014V92.9581C101.723 94.9668 103.327 96.6006 105.289 96.6006C107.251 96.6006 108.854 94.9668 108.854 92.9581V71.8262C108.854 70.4067 109.809 68.7328 111.015 68.0096L115.813 65.184C117.032 64.4609 118.928 64.4609 120.147 65.184L124.945 67.9962C126.152 68.706 127.106 70.3799 127.106 71.8128V75.1473H127.119Z" fill="#D97757"/>
<path d="M110.339 38.7758C114.541 36.3118 121.393 36.3118 125.595 38.7758L128.1 40.2489C128.577 40.49 129.094 40.6105 129.624 40.6105C131.586 40.6105 133.176 38.9901 133.176 36.9948C133.176 35.7092 132.487 34.5039 131.4 33.8611L131.268 33.7808L126.748 31.1293C124.428 29.7499 121.3 29 117.96 29C114.62 29 111.505 29.7499 109.172 31.1159L85.2878 45.1368C82.955 46.5028 80.7547 48.8731 79.0846 51.8192C77.4146 54.752 76.5 57.8722 76.5 60.6041V65.5991C76.553 67.4606 78.1171 68.9068 80.0522 68.9068C81.9874 68.9068 83.5514 67.4606 83.6044 65.5991C83.6044 65.492 83.6044 64.2332 83.6044 63.4163C83.6044 58.4882 87.0241 52.462 91.2258 49.998L110.339 38.7758Z" fill="#D97757"/>
<path d="M156.902 51.8996C155.219 48.9534 153.019 46.5697 150.672 45.2038L141.262 39.6865C140.771 39.4454 140.241 39.3115 139.698 39.3115C137.723 39.3115 136.119 40.9453 136.119 42.954C136.119 44.2262 136.755 45.3913 137.829 46.0608L144.695 50.0917C148.923 52.5691 152.356 58.6087 152.356 63.5636V82.1109C152.356 84.1063 153.96 85.74 155.921 85.74C156.876 85.74 157.764 85.3651 158.44 84.6821C159.116 83.9991 159.487 83.0885 159.487 82.1109V60.738C159.5 57.9927 158.572 54.8591 156.902 51.8996Z" fill="#D97757"/>
<path d="M80.1317 74.0358C78.1303 74.0358 76.5 75.6696 76.5 77.6649V90.253C76.5 92.2483 78.1303 93.8687 80.1317 93.8687C82.1332 93.8687 83.7635 92.2483 83.7635 90.253V77.6649C83.7635 75.6696 82.1332 74.0358 80.1317 74.0358Z" fill="#D97757"/>
<path d="M139.684 53.5601L124.879 44.7887C123.05 43.7039 120.598 43.1147 117.96 43.1147C115.323 43.1147 112.87 43.7173 111.041 44.7887L107.661 46.784C106.654 47.4536 106.044 48.5919 106.044 49.8373C106.044 51.846 107.635 53.4664 109.583 53.4664C110.14 53.4664 110.683 53.3325 111.187 53.078L114.01 51.4041C115.097 50.7613 116.542 50.4399 117.973 50.4399C119.405 50.4399 120.85 50.7613 121.937 51.4041L135.629 59.506C137.816 60.7916 139.578 63.952 139.578 66.5232V86.9721C139.578 88.9674 141.156 90.6012 143.104 90.6012C144.43 90.6012 145.636 89.8379 146.245 88.6192C146.497 88.1103 146.63 87.5345 146.63 86.9721V65.867C146.63 63.6975 145.901 61.2067 144.589 58.8632C143.25 56.533 141.514 54.6448 139.684 53.5601Z" fill="#D97757"/>
<path d="M103.102 55.9974C103.102 53.9753 101.525 52.3415 99.5894 52.3415C99.0327 52.3415 98.4893 52.4754 97.9856 52.7432L96.2758 53.761C94.4599 54.8457 92.7368 56.7473 91.4246 59.1042C90.1124 61.4611 89.3967 63.952 89.3967 66.1348V104.863C89.3967 105.841 89.7678 106.765 90.4305 107.448C91.0933 108.131 91.9681 108.506 92.8959 108.506C94.831 108.506 96.3951 106.872 96.3951 104.863V66.8044C96.3951 64.2198 98.1579 61.046 100.332 59.747C100.862 59.439 101.472 59.0774 101.564 59.0105C102.519 58.3409 103.102 57.216 103.102 55.9974Z" fill="#D97757"/>
</g>
<defs>
<clipPath id="clip0_2876_6004">
<rect width="83" height="92" fill="white" transform="translate(76.5 29)"/>
</clipPath>
</defs>
</svg>
