<svg width="24" height="24" viewBox="0 0 24 24" fill="none" xmlns="http://www.w3.org/2000/svg">
<path fill-rule="evenodd" clip-rule="evenodd" d="M0 1.77773C0 0.795867 0.79594 0 1.77778 0H22.2223C23.2041 0 24 0.795867 24 1.77773V22.2222C24 23.2041 23.2041 24 22.2223 24H1.77778C0.79594 24 0 23.2041 0 22.2222V1.77773ZM3.55555 3.99996C3.55555 3.75452 3.75454 3.55555 4 3.55555H6.66667C6.91214 3.55555 7.11111 3.75452 7.11111 3.99996V6.6666C7.11111 6.91214 6.91214 7.1111 6.66667 7.1111H4C3.75454 7.1111 3.55555 6.91214 3.55555 6.6666V3.99996ZM8.44445 3.55555C8.199 3.55555 8.00001 3.75452 8.00001 3.99996V6.6666C8.00001 6.91214 8.199 7.1111 8.44445 7.1111H11.1111C11.3565 7.1111 11.5556 6.91214 11.5556 6.6666V3.99996C11.5556 3.75452 11.3565 3.55555 11.1111 3.55555H8.44445ZM12.4444 3.99996C12.4444 3.75452 12.6435 3.55555 12.8889 3.55555H15.5555C15.801 3.55555 15.9999 3.75452 15.9999 3.99996V6.6666C15.9999 6.91214 15.801 7.1111 15.5555 7.1111H12.8889C12.6435 7.1111 12.4444 6.91214 12.4444 6.6666V3.99996ZM4 8.00001C3.75454 8.00001 3.55555 8.19897 3.55555 8.44443V11.1111C3.55555 11.3565 3.75454 11.5555 4 11.5555H6.66667C6.91214 11.5555 7.11111 11.3565 7.11111 11.1111V8.44443C7.11111 8.19897 6.91214 8.00001 6.66667 8.00001H4ZM8.00001 8.44443C8.00001 8.19897 8.199 8.00001 8.44445 8.00001H11.1111C11.3565 8.00001 11.5556 8.19897 11.5556 8.44443V11.1111C11.5556 11.3565 11.3565 11.5555 11.1111 11.5555H8.44445C8.199 11.5555 8.00001 11.3565 8.00001 11.1111V8.44443ZM17.3334 8.00001C17.0879 8.00001 16.8889 8.19897 16.8889 8.44443V11.1111C16.8889 11.3565 17.0879 11.5555 17.3334 11.5555H20C20.2455 11.5555 20.4444 11.3565 20.4444 11.1111V8.44443C20.4444 8.19897 20.2455 8.00001 20 8.00001H17.3334ZM3.55555 12.8889C3.55555 12.6435 3.75454 12.4444 4 12.4444H6.66667C6.91214 12.4444 7.11111 12.6435 7.11111 12.8889V15.5555C7.11111 15.801 6.91214 15.9999 6.66667 15.9999H4C3.75454 15.9999 3.55555 15.801 3.55555 15.5555V12.8889ZM12.8889 12.4444C12.6435 12.4444 12.4444 12.6435 12.4444 12.8889V15.5555C12.4444 15.801 12.6435 15.9999 12.8889 15.9999H15.5555C15.801 15.9999 15.9999 15.801 15.9999 15.5555V12.8889C15.9999 12.6435 15.801 12.4444 15.5555 12.4444H12.8889ZM16.8889 12.8889C16.8889 12.6435 17.0879 12.4444 17.3334 12.4444H20C20.2455 12.4444 20.4444 12.6435 20.4444 12.8889V15.5555C20.4444 15.801 20.2455 15.9999 20 15.9999H17.3334C17.0879 15.9999 16.8889 15.801 16.8889 15.5555V12.8889ZM8.44445 16.8889C8.199 16.8889 8.00001 17.0879 8.00001 17.3334V20C8.00001 20.2455 8.199 20.4444 8.44445 20.4444H11.1111C11.3565 20.4444 11.5556 20.2455 11.5556 20V17.3334C11.5556 17.0879 11.3565 16.8889 11.1111 16.8889H8.44445ZM12.4444 17.3334C12.4444 17.0879 12.6435 16.8889 12.8889 16.8889H15.5555C15.801 16.8889 15.9999 17.0879 15.9999 17.3334V20C15.9999 20.2455 15.801 20.4444 15.5555 20.4444H12.8889C12.6435 20.4444 12.4444 20.2455 12.4444 20V17.3334ZM17.3334 16.8889C17.0879 16.8889 16.8889 17.0879 16.8889 17.3334V20C16.8889 20.2455 17.0879 20.4444 17.3334 20.4444H20C20.2455 20.4444 20.4444 20.2455 20.4444 20V17.3334C20.4444 17.0879 20.2455 16.8889 20 16.8889H17.3334Z" fill="#0C63CE"/>
</svg>
