<svg width="60" height="61" viewBox="0 0 60 61" fill="none" xmlns="http://www.w3.org/2000/svg">
<path d="M23.9665 16.1364C24.7031 16.08 25.9086 15.8815 26.4925 16.3751C27.3566 17.1059 26.8668 37.0947 26.8387 39.0722C28.801 38.9891 36.358 38.6941 38.0186 38.9677C38.9133 39.4777 39.0568 41.9309 38.6324 42.7774C38.4791 43.0834 38.0473 43.0559 37.7242 43.0907C36.9242 43.0632 36.0832 43.0644 35.2813 43.087C30.9739 43.2092 26.7606 43.1396 22.4605 42.9881C22.2034 39.4826 22.4434 36.1609 22.3286 32.7011C22.1442 27.1422 22.2712 21.8127 22.4507 16.2538L23.9665 16.1364Z" fill="#D97757"/>
<path d="M23.1484 16.9681C24.0309 17.0433 25.206 17.0518 26.111 17.0826C25.8051 19.532 26.1544 22.1156 26.086 24.5423C25.9419 29.631 25.984 34.526 26.1422 39.6103C30.0935 39.9517 33.858 39.9101 37.8204 39.8558C37.7837 40.588 37.8131 41.3539 37.8253 42.0892C32.9597 41.9988 28.1673 42.2272 23.3078 42.3469C23.3353 33.8872 23.2822 25.4272 23.1484 16.9681Z" fill="#D97757"/>
<path d="M56.3963 53.2787C57.2494 53.1737 59.0492 52.9947 59.6587 53.658C60.1742 54.9179 60.0209 58.6054 59.7485 59.9478C58.8318 60.0595 57.7429 60.0919 56.8054 60.1395C55.791 60.164 54.3082 60.3423 53.4782 59.8702C52.7643 58.8057 52.9866 54.8696 53.0587 53.4705C54.1085 53.4467 55.3354 53.3435 56.3963 53.2787Z" fill="#222222"/>
<path d="M53.7539 54.05C55.5714 54.1691 57.1361 54.1612 58.9542 54.152C58.9261 55.0144 59.1716 58.5401 58.9469 59.0983C57.3181 59.1435 55.5464 59.2662 53.9084 59.3511C53.9866 57.6637 53.8498 55.7405 53.7539 54.05Z" fill="#D97757"/>
<path d="M3.08326 53.2965C3.96269 53.2342 6.02571 52.9331 6.65964 53.6031C7.21356 54.8996 7.06149 58.5939 6.81293 59.9692C5.96952 60.0425 4.97954 60.0761 4.12331 60.1249C2.0035 60.2227 0.179887 60.754 0.13103 58.3581C0.095608 56.606 -0.218296 55.2691 0.274555 53.5078C1.16621 53.3753 2.17267 53.3441 3.08326 53.2965Z" fill="#222222"/>
<path d="M0.785156 54.0593C2.45425 54.2065 4.31939 54.1607 6.00009 54.1277C5.99337 55.0389 6.32987 58.6153 5.87244 59.1136C4.25098 59.1588 2.5483 59.273 0.922568 59.361C1.08136 57.6962 0.898139 55.7455 0.785156 54.0593Z" fill="#D97757"/>
<path d="M3.10924 0.103247C3.98257 0.0505416 6.02483 -0.224038 6.65875 0.419111C7.21695 1.70101 7.05511 5.39733 6.798 6.75936C5.94543 6.86544 4.52489 6.89647 3.62835 6.94142C3.03168 6.97006 0.651098 7.13361 0.456889 6.59422C-0.111691 5.01392 -0.109252 1.92429 0.254126 0.318464C1.14578 0.168227 2.19194 0.146119 3.10924 0.103247Z" fill="#222222"/>
<path d="M0.777344 0.8573C2.56797 0.980116 4.21509 0.955443 6.00267 0.929305C5.99167 2.08332 6.27749 5.03701 5.97091 5.89214C4.41235 5.90093 2.5063 6.05636 0.922092 6.1531C1.02347 4.42696 0.90132 2.58264 0.777344 0.8573Z" fill="#D97757"/>
<path d="M56.1716 0.104109C57.153 0.0380287 58.8398 -0.188121 59.5922 0.380459C60.1822 1.57875 59.9819 5.44003 59.762 6.76273C58.8972 6.86734 57.4321 6.89373 56.5209 6.93593C55.9303 6.95791 53.6218 7.13863 53.4148 6.60675C52.8126 5.05907 52.8493 1.83165 53.2267 0.305891C54.1122 0.161945 55.2537 0.143195 56.1716 0.104109Z" fill="#222222"/>
<path d="M53.752 0.859619C55.4846 0.9508 57.2202 0.975107 58.9553 0.932418C58.9528 2.28266 59.1776 4.69219 58.9357 5.89879C57.3039 5.89244 55.5255 6.02857 53.8942 6.14033C53.9168 4.32979 53.8491 2.6657 53.752 0.859619Z" fill="#D97757"/>
<path d="M3.21491 21.6827C4.4736 22.1629 4.07235 24.9337 3.86287 25.9553C3.60698 25.8636 3.37003 25.8292 3.22651 25.6476C2.55777 24.8021 2.99138 22.6594 3.21491 21.6827Z" fill="#222222"/>
<path d="M3.20065 28.0635C4.4856 28.4024 4.04773 31.4031 3.85596 32.3534C2.26626 31.8672 2.98628 29.259 3.20065 28.0635Z" fill="#222222"/>
<path d="M3.19226 34.3885C4.45951 34.7947 4.0656 37.7066 3.85307 38.6807C2.25359 38.2123 2.99256 35.5788 3.19226 34.3885Z" fill="#222222"/>
<path d="M3.28683 40.723C3.39737 40.7859 3.57874 40.9227 3.68867 41.0003C4.25359 42.1625 4.16565 43.8212 3.76685 45.0139C3.41263 44.8649 3.27828 44.8857 3.11643 44.5693C2.61687 43.5928 2.96315 41.7075 3.28683 40.723Z" fill="#222222"/>
<path d="M56.1601 34.3885C57.4432 34.7281 57.0133 37.7506 56.8209 38.6801C55.255 38.2452 55.9653 35.5269 56.1601 34.3885Z" fill="#222222"/>
<path d="M3.2636 47.0879C4.50519 47.803 4.08869 50.2001 3.79127 51.3342C2.3457 50.9079 2.9387 48.1243 3.2636 47.0879Z" fill="#222222"/>
<path d="M56.2313 15.3136C57.3984 15.953 57.0863 18.4819 56.7627 19.5822C55.2731 19.0643 55.9235 16.4506 56.2313 15.3136Z" fill="#222222"/>
<path d="M3.29885 8.98853L3.69398 9.29883C4.24363 10.4296 4.1618 12.1134 3.74468 13.2717C2.32964 12.73 2.92997 10.0591 3.29885 8.98853Z" fill="#222222"/>
<path d="M56.167 21.6962C57.3976 22.2259 57.0654 24.8716 56.8278 25.9309C55.2436 25.4541 55.9459 22.8972 56.167 21.6962Z" fill="#222222"/>
<path d="M3.28375 15.3086C4.44961 16.2755 4.13875 18.3313 3.75094 19.5976C2.3243 19.1001 2.92709 16.3648 3.28375 15.3086Z" fill="#222222"/>
<path d="M56.2375 40.7603C57.4663 41.4669 57.0364 43.8792 56.7579 45.0072C55.2787 44.4429 55.8906 41.909 56.2375 40.7603Z" fill="#222222"/>
<path d="M56.2237 47.072L56.5975 47.2772C57.2515 48.2849 57.075 50.1928 56.766 51.3355C55.3156 50.9165 55.9122 48.0993 56.2237 47.072Z" fill="#222222"/>
<path d="M56.2792 8.98376L56.6535 9.24918C57.1971 10.4186 57.1531 12.0652 56.7256 13.2619C55.3191 12.7746 55.906 10.0334 56.2792 8.98376Z" fill="#222222"/>
<path d="M56.1886 28.0619C57.4186 28.3752 56.9936 31.431 56.8164 32.3408C55.2457 31.8565 55.962 29.2296 56.1886 28.0619Z" fill="#222222"/>
<path d="M41.9773 3.00306C42.8488 2.94352 44.0586 2.80055 44.7274 3.43081L44.6529 3.77898C44.3164 3.92213 44.1991 3.95041 43.8516 4.04465C43.0424 4.06333 40.9195 4.13204 40.5391 3.39087L40.7461 3.25944L40.7437 3.24375C41.184 3.02987 41.4686 3.04679 41.9773 3.00306Z" fill="#222222"/>
<path d="M29.3081 3.00568C30.1631 2.94388 31.3962 2.85337 32.0399 3.50452L32.0216 3.72914C31.7138 3.97117 31.4683 3.97715 31.0695 4.05105C30.1546 4.06192 28.778 4.08684 28.0195 3.51343L28.0415 3.30744C28.4708 3.03726 28.7695 3.06028 29.3081 3.00568Z" fill="#222222"/>
<path d="M16.6349 3.01298C17.4972 2.94775 18.8256 2.82243 19.4113 3.55451L19.3599 3.75366C18.9105 4.01291 18.8359 3.99489 18.2894 4.05041C17.4124 4.06073 16.0676 4.06342 15.3652 3.51224L15.3909 3.31113C15.7909 3.04981 16.1408 3.06483 16.6349 3.01298Z" fill="#222222"/>
<path d="M22.8711 3.02699C23.7261 2.96122 25.0874 2.81984 25.6822 3.53597L25.6187 3.76657C25.2224 4.01269 25.0074 4.00109 24.5359 4.05862C23.6547 4.05905 22.3703 4.05911 21.6582 3.49425L21.6796 3.31165C22.0863 3.05863 22.3807 3.07518 22.8711 3.02699Z" fill="#222222"/>
<path d="M10.1046 3.02807C10.9938 2.95992 12.4119 2.84883 13.0843 3.49924L13.0587 3.72099C12.7381 3.97169 12.4596 3.98134 12.0443 4.05939C11.0433 4.05579 9.93302 4.06794 9.07069 3.53497L9.04688 3.33502C9.40903 3.08017 9.6527 3.08921 10.1046 3.02807Z" fill="#222222"/>
<path d="M35.6816 3.01058C36.5018 2.95574 37.7477 2.85558 38.3285 3.52835L38.2808 3.75304C37.9492 3.99873 37.6719 3.99433 37.2475 4.05479C37.0209 4.05559 36.7949 4.05351 36.5684 4.04856C35.8911 4.03336 34.8211 3.9539 34.3301 3.48206L34.3966 3.2848C34.8406 3.03129 35.1417 3.05657 35.6816 3.01058Z" fill="#222222"/>
<path d="M10.5377 56.2267C11.3225 56.1345 12.5702 55.9733 12.9103 56.8295L12.7369 57.0537C12.2557 57.2863 12.0309 57.2454 11.4666 57.2582C10.6012 57.2528 9.80178 57.3022 9.15625 56.7165L9.21793 56.4961C9.66315 56.22 9.97584 56.2603 10.5377 56.2267Z" fill="#222222"/>
<path d="M48.0321 3.03406C48.7491 2.98692 50.6674 2.79185 50.9813 3.49045L50.8738 3.70067C50.4933 4.00395 50.3987 3.98783 49.9083 4.05592C48.9415 4.05659 47.8049 4.07168 46.9988 3.4976L46.9902 3.31457C47.3377 3.07645 47.6003 3.0864 48.0321 3.03406Z" fill="#222222"/>
<path d="M42.1673 56.2286C42.9503 56.1754 44.1827 55.9317 44.4966 56.8399L44.3293 57.0518C43.8291 57.282 43.7277 57.2582 43.15 57.2882C42.4159 57.2747 41.2622 57.3327 40.8262 56.664L40.9373 56.4429C41.3801 56.2261 41.6506 56.256 42.1673 56.2286Z" fill="#222222"/>
<path d="M16.6071 56.2279C17.4615 56.165 18.5681 56.0166 19.2515 56.6175L19.2595 56.9308C18.8252 57.2185 18.3886 57.2441 17.8731 57.304C16.899 57.2557 16.3347 57.2991 15.5347 56.7586L15.5176 56.532C15.9139 56.2768 16.1295 56.2884 16.6071 56.2279Z" fill="#222222"/>
<path d="M29.7244 56.2225C30.4494 56.1315 31.7038 55.9263 31.7618 56.8986L31.5053 57.1465C31.0357 57.3218 30.7492 57.2693 30.2271 57.2546C29.5021 57.2491 28.572 57.334 28.1836 56.6549L28.3564 56.4375C28.8249 56.2072 29.1827 56.2427 29.7244 56.2225Z" fill="#222222"/>
<path d="M48.9983 56.2029C49.7586 56.1412 50.1306 55.9952 50.7065 56.5351C50.7608 56.915 50.803 56.7391 50.5361 57.0713C50.0866 57.3199 49.7678 57.2661 49.2169 57.2759C48.503 57.2674 47.5448 57.3437 47.1973 56.6566L47.3793 56.4288C47.9252 56.1644 48.3717 56.2157 48.9983 56.2029Z" fill="#222222"/>
<path d="M23.2809 56.2255C23.8458 56.1663 25.8068 56.01 25.4245 56.9902C25.0049 57.2723 24.7881 57.2351 24.2422 57.2723C23.5166 57.2748 22.3324 57.334 21.8652 56.6909L21.9513 56.4826C22.3984 56.2054 22.7147 56.2518 23.2809 56.2255Z" fill="#222222"/>
<path d="M36.0201 56.2231C36.8189 56.1419 37.7649 55.9348 38.1252 56.7984L37.9396 57.0616C37.4766 57.3028 37.2122 57.254 36.6571 57.2607C35.9388 57.2631 34.9177 57.3334 34.5195 56.6561L34.6539 56.4381C35.1327 56.1932 35.4509 56.2396 36.0201 56.2231Z" fill="#222222"/>
</svg>
