<svg width="236" height="150" viewBox="0 0 236 150" fill="none" xmlns="http://www.w3.org/2000/svg">
<style>
  .bg { fill: #F2EFE9; }
  .ink { fill: #222222; }
  .bg-stroke { fill: #F2EFE9; stroke: #222222; }
  @media (prefers-color-scheme: dark) {
    .bg { fill: #1C1A17; }
    .ink { fill: #F2EFE9; }
    .bg-stroke { fill: #1C1A17; stroke: #F2EFE9; }
  }
</style>
<rect class="bg" width="236" height="150" rx="8"/>
<path class="bg-stroke" d="M108.596 7.07275C112.112 6.21973 116.185 7.02268 120.467 11.2075L121.162 11.8872L122.107 11.6558C126.22 10.6462 129.356 11.0998 131.803 12.3042C134.281 13.5239 136.226 15.5994 137.771 18.1167C140.902 23.2162 142.123 29.6367 142.923 33.0151L143.278 34.5132L144.809 34.353C146.848 34.1394 148.192 34.0718 149.086 34.1284C149.632 34.163 149.888 34.2402 149.989 34.2798C150.008 34.3549 150.039 34.5082 150.052 34.7905C150.066 35.0913 150.062 35.4474 150.054 35.9165C150.046 36.3692 150.035 36.906 150.043 37.4966L150.062 38.8989L151.436 39.1851C155.578 40.0494 160.729 40.9886 164.412 42.2007C166.338 61.0511 165.305 79.6432 165.878 98.6919V98.6938C166.043 104.027 166.348 109.358 166.795 114.685C166.89 115.966 167.074 117.761 167.18 119.638C167.256 121.006 167.272 122.219 167.207 123.104C161.798 124.914 156.41 126.065 150.475 127.528L150.464 127.531C145.435 128.802 140.436 130.116 135.467 131.47C122.167 135.072 109.174 139.127 95.7139 142.354L93.0146 142.988C91.9097 143.241 90.4111 143.241 88.8848 143.224C83.9997 139.233 74.6553 133.334 68.9307 129.607C68.903 129.42 68.8721 129.177 68.8467 128.869C68.7898 128.177 68.7597 127.298 68.752 126.273C68.7364 124.225 68.8117 121.69 68.9209 119.084C69.1359 113.957 69.4907 108.444 69.4873 106.32L69.5039 60.5562C69.5484 57.7826 69.472 55.0086 69.2734 52.2368L69.2725 52.2329C69.2114 51.4079 69.0695 50.425 68.9922 49.7085C68.906 48.9102 68.8701 48.231 68.9365 47.6294C68.9309 47.6797 68.9345 47.5749 69.1289 47.3071C69.2894 47.0861 69.5141 46.845 69.7734 46.606C69.7856 46.6004 69.7998 46.5936 69.8164 46.5864C69.9447 46.5313 70.1419 46.4591 70.418 46.3716C70.9677 46.1974 71.722 45.9981 72.6387 45.7817C74.4657 45.3506 76.8302 44.8777 79.2676 44.4312C84.1724 43.5326 89.1994 42.7701 90.6035 42.6548L90.6094 42.6538C90.7345 42.6431 90.848 42.6412 91.0684 42.6323C91.258 42.6247 91.5219 42.6112 91.8018 42.5669C92.0205 42.5326 92.1906 42.4716 92.2764 42.439C92.2981 42.4307 92.3172 42.4236 92.3301 42.4185C92.3502 42.4104 92.3465 42.4121 92.3574 42.4077C92.3524 42.4096 92.3431 42.4128 92.332 42.4165L92.1367 39.8657L92.2852 39.8267C92.1619 39.3696 92.0989 38.4828 92.1504 37.2007C92.1999 35.9685 92.3471 34.5274 92.5518 33.0581C92.9647 30.0943 93.5885 27.1846 94.0352 25.8062L94.1006 25.603L94.1162 25.3901C94.1915 24.327 94.8811 22.2298 95.9189 19.897C96.9325 17.6187 98.1314 15.4395 99.0098 14.2593L99.0254 14.2378C101.573 10.7021 104.952 7.95675 108.596 7.07275Z" stroke-width="3.5"/>
<path class="ink" d="M97.6058 13.2145C102.996 5.73289 112.393 0.868536 121.69 9.95583C139.512 5.58052 143.085 26.0997 144.627 32.6124L145.27 35.187C145.646 37.7418 146.374 41.6083 146.316 44.0503C146.774 46.4833 147.77 52.5511 145.326 54.4021C143.545 54.8256 143.525 54.5712 142.355 53.6769C141.687 51.9067 141.672 49.0426 141.552 47.149C141.333 46.401 141.313 45.752 140.678 45.1533C131.66 46.465 122.162 48.4439 112.833 49.8165C112.812 51.506 112.77 53.197 112.711 54.888C112.855 56.5669 113.466 59.9108 110.951 60.9422C109.357 60.7456 109.665 60.6588 108.275 59.8194C107.358 56.6141 107.272 54.1035 107.271 50.8403C107.092 47.4796 107.106 44.6049 107.213 41.2457L107.426 39.1586L106.954 38.5142L94.8599 41.0583C93.9607 40.9013 91.333 41.494 90.6329 41.0583C89.8442 38.1348 91.3872 28.301 92.3706 25.2664C92.5692 22.4632 95.6273 15.8729 97.6058 13.2145Z"/>
<path class="bg" d="M95.1875 40.1152C95.1875 38.276 96.2207 27.5529 97.7035 23.4717C99.2714 18.5037 101.495 12.5471 108.748 9.34484C113.435 7.27602 116.471 8.91218 118.854 11.4274C110.432 17.9004 109.893 25.1932 108.175 33.051C107.73 35.0772 107.822 36.3517 107.387 38.3489C107.387 38.3489 98.5353 39.486 95.1875 40.1152Z"/>
<path class="bg" d="M129.771 35.2047L126.589 20.2731L124.432 13.5006C125.157 12.3032 127.491 12.4358 129.247 12.6749C137.887 16.61 138.114 27.1613 139.61 33.5536C136.907 34.0411 132.383 34.8787 129.771 35.2047Z"/>
<path class="bg" d="M112.953 37.6745C113.413 31.1161 115.18 20.414 121.133 14.9692C122.909 19.6233 124.424 27.0497 124.905 29.0625C125.385 31.0753 126.517 35.5996 126.517 35.5996C126.517 35.5996 117.724 37.0301 112.953 37.6745Z"/>
<path class="ink" d="M97.6044 13.2144C98.3657 13.7963 98.6984 13.7795 98.4117 14.4636C96.8388 18.2082 94.8413 21.4637 94.0922 25.347L93.6183 25.4125L93.0697 25.1398L92.5547 25.3348L92.3691 25.2662C92.5678 22.4631 95.6259 15.8728 97.6044 13.2144Z"/>
<path d="M129.67 35.2965C132.282 34.9705 136.91 34.0412 139.612 33.5537L140.285 35.8755C140.734 39.0214 141.649 44.1645 141.553 47.1489C141.334 46.4009 141.314 45.7519 140.679 45.1532C131.661 46.4649 122.163 48.4438 112.834 49.8164C112.812 51.5059 112.771 53.1969 112.711 54.8879C112.044 53.1664 112.418 42.2267 112.818 40.3163C112.814 39.4281 112.889 38.5597 112.953 37.6746C117.725 37.0302 123.394 36.2807 128.237 35.9272C128.979 35.8739 128.491 35.9623 129.328 35.5601L129.67 35.2965Z" fill="#D97757"/>
<path d="M73.9062 46.2546C80.5465 45.0191 86.2767 44.4113 92.9735 43.4607C97.6205 42.801 102.499 41.9479 107.213 41.2456C107.105 44.6048 107.091 47.4795 107.27 50.8402C102.11 51.6598 91.7464 53.165 87.1975 54.303C86.8463 52.6927 86.4236 51.2942 85.9091 49.6976C83.0466 48.7059 77.2199 47.2007 73.9062 46.2546Z" fill="#D97757"/>
<path d="M145.27 35.187C147.176 34.8899 147.083 34.7147 148.7 34.9843C149.331 35.5434 149.323 36.2853 149.129 36.9465C148.12 40.3773 154.4 40.6561 159.707 41.9038C155.407 42.6442 150.666 43.5339 146.315 44.0503C146.373 41.6082 145.645 37.7418 145.27 35.187Z" fill="#D97757"/>
<path class="ink" d="M129.742 35.2037C132.345 34.7599 136.91 34.0412 139.612 33.5537L140.284 35.8755C130.333 37.4537 102.76 42.3388 92.1283 43.5728C92.1237 42.6846 91.6981 41.7958 91.7625 40.9107C96.5337 40.2663 121.719 35.9731 126.562 35.6196L129.742 35.2037Z"/>
<path class="ink" d="M85.9265 49.6684L85.5838 51.9076C85.5838 51.9076 79.1464 50.4427 68.9229 47.29C69.2806 46.4762 69.5469 45.7291 69.9664 44.9458C74.5912 46.2777 82.3791 48.4779 85.9265 49.6684Z"/>
<path class="ink" d="M144.329 43.8618C146.954 43.5358 161.023 41.4748 163.739 40.9873L164.415 43.3091C154.414 44.8873 96.9715 55.2758 86.2866 56.5098C86.282 55.6216 86.2206 54.8314 86.2853 53.9463C91.0802 53.3019 138.022 44.846 142.889 44.4925C143.635 44.4392 143.145 44.5276 143.986 44.1254L144.329 43.8618Z"/>
<path class="ink" d="M85.8987 49.6646C87.4291 52.2645 86.9849 59.1755 87.0916 60.898C88.7321 87.3447 89.4258 113.813 89.8469 140.278C89.8548 140.781 89.6025 141.104 89.286 141.54C88.3367 139.978 88.0645 136.179 87.7492 134.367C85.0918 119.095 86.3801 104.054 86.1971 88.736C86.0443 75.9412 83.9958 53.2203 85.8987 49.6646Z"/>
</svg>
