<svg width="236" height="150" viewBox="0 0 236 150" fill="none" xmlns="http://www.w3.org/2000/svg">
<style>
  .bg { fill: #F2EFE9; }
  .ink-stroked { fill: #222222; stroke: #222222; }
  .bg-stroke { fill: #F2EFE9; stroke: #222222; }
  @media (prefers-color-scheme: dark) {
    .bg { fill: #1C1A17; }
    .ink-stroked { fill: #F2EFE9; stroke: #F2EFE9; }
    .bg-stroke { fill: #1C1A17; stroke: #F2EFE9; }
  }
</style>
<rect class="bg" width="236" height="150" rx="8"/>
<path d="M50.0351 33.2952C56.218 33.1487 72.9078 43.9376 82.9598 43.2197C96.9645 42.2194 105.194 36.3353 118.509 42.1246C120.789 41.067 123.868 39.7089 126.645 39.4961C135.102 38.7969 147.297 46.2221 155.184 45.3623C161.972 44.6222 173.031 38.6168 179.744 36.7598C181.264 36.3391 183.594 33.8171 185.563 34.5019C187.029 37.0213 174.186 42.311 171.15 43.5009C166.668 45.2574 160.759 47.996 155.666 48.7212C151.126 49.3674 142.126 45.7021 137.897 44.5697C128.55 41.5087 125.27 41.0936 117.108 45.7512C114.582 47.1925 107.439 49.1252 105.969 51.6313C103.503 55.8328 100.547 59.8205 98.2281 64.0307C97.5477 65.2685 98.2983 66.5496 100.014 67.1784C107.226 67.4446 111.358 59.3712 117.845 57.602C123.77 55.9861 124.29 56.4809 128.514 59.3653C137.567 65.5475 145.456 72.3929 152.524 79.5935C154.657 81.7762 157.024 83.9448 158.78 86.2618C165.861 79.5101 173.541 75.4718 184.292 71.6177C188.034 70.2764 191.917 68.2089 196.075 67.1205C196.942 66.8938 197.062 67.0554 197.776 67.3092L198 67.8587C197.195 70.5113 176.493 77.4826 172.067 80.0824C167.721 82.6348 164.128 86.0146 160.365 88.091C161.781 90.3942 163.076 94.1655 161.006 96.4434C159.334 98.2847 157.097 97.9675 154.558 98.3765C153.876 100.794 153.856 101.657 152.465 103.952C149.403 105.535 149.028 105.974 145.129 105.144C145.002 105.558 144.855 105.969 144.686 106.377C143.215 109.884 140.319 111.887 134.72 110.606C130.904 116.86 125.54 115.743 118.285 112.404C115.818 113.982 110.601 116.797 106.929 116.704C102.094 116.58 102.548 111.695 101.255 110.605C99.7968 111.494 98.0418 112.308 95.9061 111.741C91.8589 110.667 93.2777 107.998 91.8238 106.062C88.9888 107.313 87.4566 107.259 84.6311 105.718C80.9159 103.691 82.9085 100.789 82.5724 98.2834C81.6193 97.8986 80.2166 98.8369 78.3901 98.3644C72.65 96.8808 73.1657 91.7469 74.8424 88.6768C72.6837 87.2805 70.7114 85.9836 68.6486 84.515C60.7337 79.9984 45.6895 76.6059 38.3685 71.2301C37.8231 70.8289 38.0094 70.6562 38.1363 70.2596C41.437 69.1578 49.8609 73.5179 53.1616 74.7073C62.976 78.2433 69.6706 80.839 76.6054 86.7655C77.5234 85.8638 78.5481 85.0118 79.6712 84.2176C83.0827 81.8047 85.4951 81.6627 89.0482 83.9035C89.8933 86.0192 89.9257 87.4615 89.5626 89.6012C92.0627 87.2897 97.2994 82.8984 102.207 86.2519C104.418 87.7628 104.042 90.321 103.836 92.2945C111.357 88.7821 110.748 96.0829 111.45 98.4116C117.19 100.655 116.169 103.98 114.882 107.813C117.981 109.409 123.162 112.325 127.408 112.161C128.527 112.264 133.565 110.755 132.46 109.657C130.832 108.038 115.327 100.595 118.09 98.5615C120.709 98.3671 130.668 105.849 133.703 107.088C135.189 107.695 135.644 107.859 137.289 108.343C140.935 107.347 141.708 106.653 143.694 104.497C139.4 102.534 130.269 95.6388 126.165 92.9007C125.495 92.4544 124.29 90.4745 124.662 89.5062C127.91 88.6796 141.727 102.213 147.243 102.216C152.199 102.219 151.562 99.4565 152.236 97.3667L152.371 96.9685C149.009 95.1946 129.025 80.4717 130.724 78.1265L131.644 78.035C133.214 78.6778 133.753 79.8147 134.911 80.5206C139.493 83.3121 151.7 95.9601 157.668 95.8345C158.985 95.3269 158.585 95.3904 159.307 94.4196C161.577 91.369 156.423 86.8204 153.966 84.224C150.535 80.5966 146.583 76.8744 142.647 73.487C139.137 70.4668 124.981 60.7845 123.301 58.1432C113.797 60.7259 114.595 63.2115 107.948 67.5425C102.88 70.844 93.7111 69.2897 95.9089 63.8271C97.9217 58.8209 102.132 52.7332 105.92 48.164C106.524 47.4346 114.414 44.0324 115.916 43.3391C102.053 40.069 97.9919 44.4379 84.7918 45.8638C74.9288 46.9292 61.541 39.7341 53.595 36.3426C51.4134 35.4114 50.355 34.9334 50.0351 33.2952Z" class="ink-stroked"/>
<path d="M99.0115 87.4241L100.012 87.4932C105.273 90.112 96.2791 99.0175 93.6359 101.654C92.1347 103.151 90.5863 104.292 87.862 104.6C78.9778 101.106 89.6277 93.209 93.675 89.8418C95.3436 88.4524 96.5829 88.0066 99.0115 87.4241Z" class="bg-stroke"/>
<path d="M106.037 93.5116C106.814 93.4768 106.728 93.5042 107.518 93.5964C111.167 95.3349 107.468 100.57 105.84 102.664C103.921 105.134 101.513 109.013 97.4932 110.079C93.3353 108.832 94.0103 106.935 94.337 104.289C98.0562 101.17 99.8719 98.1807 103.206 94.9961C103.502 94.7134 105.507 93.7621 106.037 93.5116Z" class="bg-stroke"/>
<path d="M83.4139 84.3899C84.5074 84.4552 85.0852 84.4965 86.153 84.6473C88.8625 86.3865 85.4227 93.335 83.719 95.2242C82.5216 95.7831 81.3174 95.7777 79.827 95.9113C70.8658 93.6377 79.7946 86.9015 83.4139 84.3899Z" class="bg-stroke"/>
<path d="M111.278 100.886C116.66 102.864 108.609 110.358 112.29 111.706C113.095 111.272 112.386 110.888 113.94 110.213C115.247 110.333 115.133 110.54 116.324 111.327C114.914 111.989 113.309 112.649 111.85 113.278C106.134 115.875 104.899 113.055 104.336 109.923C105.914 107.72 108.889 102.225 111.278 100.886Z" class="bg-stroke"/>
</svg>
