<svg width="236" height="150" viewBox="0 0 236 150" fill="none" xmlns="http://www.w3.org/2000/svg">
<style>
  .bg { fill: #F2EFE9; }
  .ink { fill: #222222; }
  @media (prefers-color-scheme: dark) {
    .bg { fill: #1C1A17; }
    .ink { fill: #F2EFE9; }
  }
</style>
<rect class="bg" width="236" height="150" rx="8"/>
<path d="M149.534 44.623C150.364 44.6939 151.246 45.3497 151.398 45.8692C152.479 49.5544 152.654 53.3625 153.031 57.1053C153.543 62.275 154.168 67.4394 154.908 72.597C155.621 77.8175 156.28 83.0413 156.883 88.2679C157.23 91.1688 157.881 94.7693 157.574 97.6649C157.378 98.554 156.278 99.9456 155.332 100.559C140.742 110.014 117.665 105.643 99.7035 109.518C97.2149 110.055 93.5137 111.336 91.1751 111.434C87.565 110.573 88.2817 104.076 88.0931 101.676L86.9887 87.9712C86.2302 77.7525 85.0807 67.2782 85.3164 57.0508C85.3368 56.1858 86.002 53.8515 87.9914 53.7943C90.5977 53.7193 93.1645 53.9426 95.8287 53.7284C105.767 53.9474 115.667 55.7278 125.552 54.0651C131.597 53.0483 136.73 51.2942 141.635 48.7743C143.772 47.6772 145.868 46.212 148.244 45.3198C149.009 45.0328 148.913 45.0955 149.534 44.623Z" class="ink"/>
<path d="M148.253 48.6375C148.961 52.1826 154.426 96.1182 153.923 97.3587C152.753 98.1589 150.772 98.776 149.276 99.3266C133.109 105.281 108.882 100.922 92.9498 106.83C92.6295 105.491 92.4645 101.995 92.3403 100.491L91.3365 86.6202C90.6252 76.9459 89.3279 67.0725 88.8555 57.4225C92.6852 57.8668 95.9719 57.5575 99.4181 57.8403C119.465 59.4856 133.903 59.3671 148.253 48.6375Z" fill="#D97757"/>
<path d="M116.921 66.3894C119.939 66.4702 127.132 70.7215 129.757 72.1032C141.014 78.0292 130.546 83.1841 125.028 88.413C123.697 89.7392 120.393 92.687 117.997 93.0438C117.001 92.8242 116.801 92.6999 115.914 92.3003C114.453 88.5282 114.417 84.3549 114.599 80.4676C114.745 77.3536 112.483 67.8643 116.921 66.3894Z" class="ink"/>
<path d="M118.814 72.094C121.34 72.9977 127.763 76.8523 129.949 78.1946C128.126 80.1963 126.79 81.4734 124.702 83.3025C122.947 84.6707 121.409 85.889 119.772 87.3314C119.784 82.5716 119.304 76.8542 118.814 72.094Z" fill="#D97757"/>
<path d="M177.827 94.645C178.363 94.8378 178.928 94.6697 179.245 95.1132C179.691 95.7377 179.94 96.7115 179.618 97.3864C177.849 101.088 172.966 104.147 168.851 106.777C156.885 114.269 142.961 118.333 126.448 118.743C120.829 118.882 114.882 118.601 109.391 118.775C99.5007 119.033 89.7479 120.394 80.5436 122.801C78.5018 123.341 76.37 124.024 74.3614 124.542C73.1626 124.85 69.7742 126.134 68.9044 126.096L68.1374 126.036C67.5942 125.555 67.4967 125.37 67.3928 124.79C66.8443 121.735 72.8005 120.146 76.2607 119.158C86.8523 116.183 98.1851 114.53 109.686 114.283C115.519 114.134 121.355 114.609 126.982 114.449C145.29 113.932 159.549 108.196 171.823 99.5535C174.041 97.9916 175.609 96.253 177.658 94.7661L177.827 94.645Z" class="ink"/>
<path d="M108.727 117.948C109.836 117.878 111.644 117.607 112.436 118.152L112.14 118.371L112.482 118.548C111.177 118.535 109.911 118.391 108.654 118.167L108.727 117.948Z" class="ink"/>
<path d="M117.421 44.0299C134.84 41.1184 148.119 34.6823 159.878 25.8369C160.816 25.1322 162.821 23.5111 164.274 23.9902C164.579 24.4608 164.506 25.7147 164.13 26.127C152.317 39.0819 129.784 49.0682 106.55 49.3526C94.8722 49.4955 83.4804 47.3021 71.7962 49.3669C69.2798 49.8117 66.4088 50.4126 63.8464 50.6034C63.7446 50.2251 63.7628 50.3532 63.8399 49.9654L63.601 49.7508C59.8131 46.2862 66.396 45.4794 70.1957 44.8073C84.0011 42.3658 98.9794 45.9131 112.638 44.5362C113.751 44.5013 116.266 44.1698 117.421 44.0299Z" class="ink"/>
<path d="M112.637 44.5361C113.75 44.5011 116.266 44.1697 117.421 44.0298L117.753 44.2545C117.665 44.578 117.751 44.4217 117.482 44.7197C115.853 45.2558 113.38 45.5227 111.635 45.1194C112.049 44.76 112.054 44.7819 112.637 44.5361Z" class="ink"/>
<path d="M73.0011 55.5649C73.4285 55.5549 73.8571 55.5559 74.2845 55.5681C79.2519 55.74 79.6579 57.8073 79.9332 60.6375C80.4571 66.0171 80.2075 71.4504 80.7495 76.8321C81.5926 84.1423 82.3168 91.458 82.921 98.779C83.0881 100.756 84.1015 109.374 83.4234 110.964C82.9553 112.053 81.8508 112.974 80.3542 113.523C79.1019 113.993 77.2551 114.245 75.8421 114.575C74.1731 114.965 69.2763 117.39 68.1504 116.016C68.3336 114.663 67.6266 114.108 68.2383 112.71C70.3926 110.913 76.4924 109.893 79.8561 109.024C79.9172 105.603 76.0628 60.43 75.8603 60.1216C74.0424 59.3214 61.9029 63.2826 64.5124 57.0832C64.9742 55.9859 70.9561 55.7468 73.0011 55.5649Z" class="ink"/>
<path d="M166.722 34.4866C167.44 34.8994 167.253 35.402 167.221 35.9944L167.206 36.2283C169.311 37.4665 165.652 40.0882 164.356 41.1551C161.327 43.6468 160.271 45.5357 160.8 48.7433C163.367 63.0557 164.807 77.4468 165.114 91.8577C169.554 88.3774 172.751 85.6727 176.839 81.9822C177.676 84.8431 178.014 85.0696 176.04 87.5566C174.211 89.6708 168.032 95.8128 164.222 96.056C163.351 95.8814 162.857 95.5182 162.46 94.9922C160.816 92.8176 160.559 76.3438 160.328 72.9986C159.986 68.0661 159.496 63.0788 158.685 58.17C158.099 54.6156 157.089 51.0083 156.909 47.4367C156.829 45.8466 157.07 44.3568 157.864 42.8496C158.948 40.788 164.013 35.3442 166.722 34.4866Z" class="ink"/>
<path d="M173.614 48.4207C174.519 48.5413 174.172 48.392 174.808 48.7505C176.075 50.8056 176.139 54.6482 177.39 57.0403C177.579 58.0002 180.879 61.223 180.308 61.9222C177.496 65.368 176.296 66.971 175.228 70.827C174.268 71.3542 174.783 71.2406 173.719 71.333C171.352 70.3354 172.019 65.4897 171.246 63.9477C169.43 60.3209 168.048 60.2467 171.392 56.6224C173.258 54.5985 171.817 50.6641 173.614 48.4207Z" class="ink"/>
<path d="M174.338 56.8286C175.506 58.2827 174.883 58.9888 177.148 61.054C176.109 62.0856 175.673 62.6734 174.849 63.7941L174.719 63.9265C174.396 63.8052 172.934 60.3488 172.521 59.5943C173.372 58.6812 173.78 57.8322 174.338 56.8286Z" fill="#D97757"/>
<path d="M58.2166 82.4331C62.4963 83.4028 62.387 87.1328 59.1786 88.7445C54.5325 88.2922 54.689 84.2534 58.2166 82.4331Z" class="ink"/>
<path d="M68.5295 86.3248C71.0394 86.2799 72.431 87.2083 72.4021 88.9005C72.3763 90.4973 71.6554 91.0575 70.0399 92.1245C66.2123 91.832 65.4549 88.1563 68.5295 86.3248Z" class="ink"/>
<path d="M68.4775 73.8093C72.2815 74.2889 71.9462 77.4636 69.4063 78.9476C65.6686 78.1279 65.6151 75.3458 68.4775 73.8093Z" class="ink"/>
</svg>
