<svg width="236" height="150" viewBox="0 0 236 150" fill="none" xmlns="http://www.w3.org/2000/svg">
<style>
  .bg { fill: #F2EFE9; }
  .ink { fill: #222222; }
  @media (prefers-color-scheme: dark) {
    .bg { fill: #1C1A17; }
    .ink { fill: #F2EFE9; }
  }
</style>
<rect class="bg" width="236" height="150" rx="8"/>
<path class="ink" d="M194.492 67.1588C189.428 64.0736 181.972 60.9829 176.452 58.5867L148.829 46.6683C144.565 44.7693 140.323 42.8212 136.103 40.8247C133.515 39.6114 128.292 36.8563 125.46 36.3983C123.15 36.0249 119.265 36.8675 116.863 37.3014C103.223 39.7659 90.1355 44.6305 76.6832 47.8368C67.734 49.9698 58.4173 50.926 49.2847 51.8483C46.5312 52.1166 41.5169 53.0759 38.8122 51.9034C38.1428 51.6131 38.1239 51.1435 38 50.5708C38.2273 49.9942 38.5727 49.1973 39.2967 49.0907C48.7259 47.7039 58.7229 47.5446 68.1119 45.7876C86.2095 42.4003 103.563 35.1015 121.852 32.6442C131.71 31.4291 143.302 33.4558 153.229 33.595C158.663 33.9441 165.811 34.0598 170.848 35.6525C175.237 37.0405 172.473 41.6054 170.394 43.6912C175.869 44.6576 187.111 46.3709 190.881 50.7675C193.681 54.0332 188.147 57.2656 185.508 58.5026C189.007 60.0298 192.168 61.3388 195.394 63.3432C199.653 65.9903 198.306 70.2625 194.133 71.5868C185.176 74.429 174.471 69.5506 165.845 67.289C167.384 72.617 174.798 95.6122 172.139 99.9442C171.664 100.717 170.776 101.066 169.925 101.23C169.001 101.408 168.035 101.335 167.101 101.272C167.909 105.002 167.557 108.346 165.485 111.623C163.665 114.546 160.749 116.616 157.389 117.369C154.132 118.119 150.711 117.506 147.916 115.674C147.05 115.104 146.263 114.425 145.573 113.652C145.481 113.904 145.385 114.154 145.285 114.403C141.814 123.052 131.671 111.744 127.713 109.164C124.551 107.104 121.982 105.406 118.621 103.642C113.896 101.16 109.631 100.666 104.564 99.3617C101.496 98.5527 98.487 97.5347 95.5576 96.3154C91.5325 94.667 88.0038 92.6206 84.3771 90.3267C80.376 87.8523 76.6482 84.8568 71.6957 85.0007C66.2492 85.1588 61.2098 86.7797 56.0299 88.2968C53.0326 89.1747 49.5797 90.1383 46.6665 91.2573C44.8439 90.932 41.9307 90.0868 40.0574 89.605C49.0401 85.6155 62.4955 82.1338 72.3561 81.1587C79.213 80.4807 89.2163 89.6561 95.4652 92.2375C104.788 96.0897 114.954 96.9924 123.775 102.054C127.328 104.045 138.875 114.089 141.23 113.59C141.966 112.715 141.832 110.905 141.72 109.791C141.027 102.869 136.074 97.3377 130.961 93.0745C124.789 87.929 114.729 84.6172 113.767 75.4422C113.433 72.248 114.235 69.4086 116.321 66.9303C119.107 63.6221 122.088 62.5105 126.223 61.9764C132.75 61.1339 145.635 66.076 150.297 70.1374C157.086 76.0518 158.127 95.2047 168.869 97.864C169.015 90.5894 164.208 74.9313 161.719 67.6147C160.962 65.3893 159.584 64.2419 158.552 62.778C155.866 58.9643 134.023 48.6459 133.626 45.4486C134.807 42.5997 143.169 48.7922 145.017 49.7979C152.114 53.6596 158.141 57.2321 163.912 62.9353C167.48 63.8927 171.034 64.9027 174.573 65.9655C181.593 68.0347 187.406 70.2102 194.492 67.1588ZM156.826 91.4072C155.027 87.155 150.354 74.8585 146.995 72.5009C140.88 68.209 129.997 63.7943 122.471 66.9873C115.498 69.9463 116.572 77.8647 121.805 81.9458C129.965 88.3094 136.78 91.0076 142.371 100.212C143.976 92.9297 150.27 91.4512 156.826 91.4072ZM186.038 54.1815C186.979 53.4043 187.168 53.4928 187.545 52.4997C185.84 50.3215 167.727 46.8972 164.133 46.0795C161.092 45.388 154.385 43.4489 151.543 43.0816C151.142 43.0296 150.737 43.0068 150.333 43.0135C156.655 45.9174 163.016 48.7375 169.413 51.4735C172.737 52.9142 176.359 54.716 179.87 55.5723C181.786 56.0396 184.3 54.9815 186.038 54.1815ZM164.949 42.1344L167.9 40.6965C168.567 40.0818 168.764 40.0925 169.012 39.298C167.383 37.7332 148.066 36.8881 144.469 36.9682C144.115 36.9772 143.761 36.9926 143.407 37.0145C148.413 38.5702 159.829 41.4154 164.949 42.1344Z"/>
<path d="M156.978 91.4262C159.84 96.2088 161.691 99.2423 167.307 101.235C168.092 104.892 167.572 108.593 165.56 111.806C163.793 114.672 160.447 116.712 157.184 117.45C154.022 118.185 150.493 117.51 147.778 115.713C146.938 115.155 146.173 114.488 145.503 113.731C146.116 108.898 145.032 104.176 142.404 100.116C143.964 92.9755 150.51 91.0678 156.978 91.4262Z" fill="#D97757"/>
<path d="M152.927 100.137C154.762 100.047 158.683 99.6463 158.647 101.992C156.636 102.856 150.606 100.446 151.693 105.291C152.322 108.097 155.395 107.44 157.646 106.906L157.954 106.785L158.486 106.977L158.679 107.516C157.271 112.098 147.209 108.132 149.535 103.437C150.514 101.46 150.645 101.222 152.927 100.137Z" fill="#F2EFE9"/>
</svg>
