<svg width="437" height="440" viewBox="0 0 437 440" fill="none" xmlns="http://www.w3.org/2000/svg">
<style>
  [fill="#7D967A"], [fill="#9BB29B"] { fill: #A8C3AC; }
  [stroke="#7D967A"], [stroke="#9BB29B"] { stroke: #A8C3AC; }
  [fill="#0B0B0A"], [fill="#020202"] { fill: #080808; }
  [stroke="#0B0B0A"], [stroke="#020202"] { stroke: #080808; }
  [fill="#F6F3EF"], [fill="#FDF7E5"], [fill="#FEFDF4"], [fill="#FEFBE5"] { fill: #F4F4EF; }
  [stroke="#F6F3EF"], [stroke="#FDF7E5"], [stroke="#FEFDF4"], [stroke="#FEFBE5"] { stroke: #F4F4EF; }
</style>
<path d="M9.62586 271.221C-14.4141 211.001 17.4356 110.008 74.1456 59.427C216.436 -67.5017 392.726 31.5816 424.616 145.123C449.266 230.068 440.696 308.215 365.486 383.613C333.166 414.077 270.296 445.842 205.826 438.313C178.716 437.164 150.026 428.155 129.476 417.847C124.636 415.827 119.216 412.848 114.626 410.488C95.5959 414.677 30.6559 430.845 7.37586 431.095C2.74586 431.145 -0.584175 422.316 0.0858253 418.577C6.10583 385.242 20.1058 352.098 25.5458 318.683C25.8358 316.854 19.8258 303.896 18.5658 300.696C14.1458 291.548 11.2959 280.7 9.62586 271.221Z" fill="#FDF7E5"/>
<path d="M22.0159 253.134C21.0159 240.397 19.0358 218.1 20.4058 205.802C26.9658 151.572 51.3559 91.6215 113.296 50.3685C138.796 33.3913 179.896 18.0239 217.946 18.1539C362.896 19.0937 416.946 139.564 419.646 208.382C422.046 269.822 400.346 342.929 329.606 389.981C267.176 431.514 186.526 432.544 120.066 393.731L117.466 392.191C84.8258 399.72 51.9058 406.789 18.7358 413.417C26.5858 383.173 38.5759 346.609 42.0359 316.274C42.6059 311.275 34.5558 295.727 31.7058 289.728C28.3358 277.54 25.1059 265.342 22.0159 253.134Z" fill="#020202"/>
<path d="M203.296 39.0006C212.016 38.2807 220.846 38.1207 229.626 38.5106C371.346 45.5295 410.826 179.727 398.576 247.186C386.676 312.695 337.756 408.818 199.336 400.7C165.436 395.581 144.776 386.372 120.536 371.805C95.4758 377.414 70.3058 382.873 45.0458 388.162C49.5358 364.776 64.4057 334.771 62.4057 311.905C58.7157 301.006 53.4057 289.249 48.8957 278.53C18.4357 206.173 56.7458 57.7074 203.296 39.0006Z" fill="#9BB29B"/>
<path d="M145.766 127.476C167.076 128.055 175.536 151.442 182.556 161.28C198.316 183.346 193.706 188.935 177.576 209.772C191.536 230.988 209.806 247.456 239.066 261.803C254.976 240.187 260.116 233.378 295.456 251.125C303.836 255.334 312.976 259.653 321.386 263.983C331.826 281.27 320.816 298.987 308.376 314.744C220.126 388.172 16.4956 175.388 145.766 127.476Z" fill="#FDF7E5"/>
<path d="M144.756 143.873L150.366 144.683C159.086 150.642 172.446 175.787 177.526 184.416C170.236 193.674 166.056 199.004 161.016 208.682C172.056 237.017 201.676 264.113 243.486 279.23C251.636 271.691 255.946 263.533 264.256 255.534C299.106 270.042 315.786 269.082 303.036 295.887C249.226 368.615 54.7057 200.043 144.756 143.873Z" fill="#9BB29B"/>
<path d="M129.476 417.847C126.496 413.748 126.856 412.908 126.826 408.548C136.476 410.028 144.386 420.606 153.516 421.656C168.066 423.336 172.706 426.665 184.976 429.885C191.676 431.644 213.116 431.544 219.266 433.934C213.196 435.344 211.146 436.044 205.826 438.313C178.716 437.164 150.026 428.155 129.476 417.847Z" fill="#FEFBE5"/>
<path d="M22.0159 253.135C25.1059 265.342 28.3358 277.54 31.7058 289.728L29.3159 291.758L25.9758 291.768C19.1858 295.927 21.3159 294.448 18.5659 300.696C14.1459 291.548 11.296 280.7 9.62598 271.221L10.6958 269.652L14.9458 269.932L13.9258 271.231L16.106 271.132L21.8359 266.032C18.9059 260.563 16.3359 257.914 22.0159 253.135Z" fill="#FEFDF4"/>
</svg>
