<svg width="236" height="150" viewBox="0 0 236 150" fill="none" xmlns="http://www.w3.org/2000/svg">
<style>
  .bg { fill: #F2EFE9; }
  @media (prefers-color-scheme: dark) {
    .bg { fill: #1C1A17; }
  }
</style>
<rect class="bg" width="236" height="150" rx="8"/>
<path d="M114.783 28.8536C109.555 29.2916 103.747 30.9449 98.8299 33.4035C89.9702 37.8263 83.004 44.8349 78.6802 53.6522C72.3215 66.5955 72.5052 81.0367 79.1747 94.5311L80.2345 96.6647L76.3204 108.28C73.3813 117.026 72.4487 119.951 72.5618 120.121C72.6465 120.248 72.8444 120.361 73.0139 120.389C73.24 120.432 73.3107 120.531 73.3107 120.856C73.3107 121.237 73.353 121.28 73.6357 121.181C74.6389 120.87 82.7779 118.27 89.5039 116.122L97.2756 113.635L99.3245 114.596C107.365 118.439 115.56 119.824 124.109 118.779C136.854 117.224 148.328 110.131 155.464 99.3636C161.243 90.6594 164.14 79.8638 163.306 70.015C162.543 60.8869 159.209 52.4794 153.514 45.3577C147.918 38.3491 139.949 33.0361 131.231 30.4927C129.365 29.9416 126.017 29.2492 124.038 28.9949C122.413 28.7829 116.705 28.6982 114.783 28.8536ZM123.826 38.3774C132.022 39.6067 139.002 43.0969 144.81 48.9186C150.462 54.5565 153.825 61.2402 154.786 68.7716C155.083 71.1172 155.097 75.6248 154.8 77.9563C153.797 85.9399 150.193 93.2593 144.457 99.0104C140.217 103.278 135.583 106.146 129.973 107.997C126.257 109.212 123.092 109.707 118.81 109.707C115.292 109.721 113.271 109.495 110.261 108.76C106.164 107.771 103.451 106.612 98.8582 103.899C98.5049 103.687 98.2506 103.758 91.9626 105.765C88.3735 106.909 85.3779 107.814 85.3214 107.771C85.2507 107.729 86.1268 104.945 87.2431 101.582C88.3594 98.2332 89.2779 95.3224 89.2779 95.1387C89.2779 94.955 88.9105 94.2202 88.4442 93.5137C83.4138 85.6996 81.5062 77.1791 82.7921 68.2064C83.541 62.964 85.3355 58.3576 88.317 54.062C94.5343 45.061 104.298 39.31 115.278 38.1796C116.959 38.01 122.145 38.123 123.826 38.3774Z" fill="#D97757"/>
<path d="M102.632 51.5043C101.756 51.801 101.021 52.3239 99.9328 53.4543C97.5306 55.9695 96.4002 58.5977 96.2448 62.1303C96.0611 66.1856 97.6437 70.6649 101.219 76.1899C107.196 85.4169 113.201 90.8288 121.142 94.1353C125.212 95.8309 127.868 96.707 129.62 96.9614C130.935 97.1309 133.535 96.7494 135.145 96.1277C136.601 95.5625 138.636 94.2342 139.54 93.2451C140.925 91.719 142.126 88.3278 142.126 85.9115C142.126 84.9083 142.097 84.7811 141.744 84.3854C141.024 83.5941 132.065 78.917 131.005 78.7757C130.044 78.6485 129.663 78.917 128.08 80.7681C125.622 83.6365 124.859 84.3854 124.421 84.3854C123.912 84.3854 120.506 82.6757 118.881 81.6018C114.911 78.9735 111.604 75.3703 109.019 70.7921C108.807 70.4247 108.637 70.0715 108.637 69.9867C108.637 69.9019 109.089 69.3367 109.64 68.7432C110.969 67.2878 111.407 66.6237 111.972 65.2531C112.622 63.7129 112.593 63.3031 111.732 60.9716C110.488 57.5803 110.092 56.5205 109.414 54.6977C108.708 52.8043 108.171 51.9706 107.45 51.6739C106.786 51.3913 103.324 51.2782 102.632 51.5043Z" fill="#D97757"/>
</svg>
